<?xml version="1.0" standalone="yes"?>
<!DOCTYPE svg PUBLIC "-//W3C//DTD SVG 1.1//EN"
 "http://www.w3.org/Graphics/SVG/1.1/DTD/svg11.dtd">
<svg xmlns="http://www.w3.org/2000/svg" version="1.1"
  width="100%" height="100%" viewBox="0 0 1024 768"
  style="fill: none; font-family: Helvetica;
 font: Helvetica;
">

<!-- Creator: NGspice -->

<rect x="0" y="0" width="1024" height="768" fill="white" stroke="none"/>
<text stroke="none" fill="black" font-size="16" x="358" y="752">
frequency[Hz]
</text>
<text transform="rotate(-90, 20, 414)"  stroke="none" fill="black" font-size="16" x="20" y="414">
Av[dB]
</text>
<text stroke="none" fill="black" font-size="16" x="10" y="16">
ac1: Voltagegain
</text>
<path stroke="black" d="M85 704l0 -640"/>
<text stroke="none" fill="black" font-size="16" x="75" y="728">
10
</text>
<path stroke="black" stroke-dasharray="1,2" d="M143 704l0 -640M160 704l0 -640M172 704l0 -640"/>
<path stroke="black" d="M182 704l0 -640"/>
<text stroke="none" fill="black" font-size="16" x="167" y="728">
100
</text>
<path stroke="black" stroke-dasharray="1,2" d="M240 704l0 -640M257 704l0 -640M269 704l0 -640"/>
<path stroke="black" d="M279 704l0 -640"/>
<text stroke="none" fill="black" font-size="16" x="259" y="728">
10^3
</text>
<path stroke="black" stroke-dasharray="1,2" d="M337 704l0 -640M354 704l0 -640M366 704l0 -640"/>
<path stroke="black" d="M376 704l0 -640"/>
<text stroke="none" fill="black" font-size="16" x="356" y="728">
10^4
</text>
<path stroke="black" stroke-dasharray="1,2" d="M434 704l0 -640M451 704l0 -640M463 704l0 -640"/>
<path stroke="black" d="M473 704l0 -640"/>
<text stroke="none" fill="black" font-size="16" x="453" y="728">
10^5
</text>
<path stroke="black" stroke-dasharray="1,2" d="M531 704l0 -640M548 704l0 -640M560 704l0 -640"/>
<path stroke="black" d="M570 704l0 -640"/>
<text stroke="none" fill="black" font-size="16" x="550" y="728">
10^6
</text>
<path stroke="black" stroke-dasharray="1,2" d="M628 704l0 -640M645 704l0 -640M657 704l0 -640"/>
<path stroke="black" d="M667 704l0 -640"/>
<text stroke="none" fill="black" font-size="16" x="647" y="728">
10^7
</text>
<path stroke="black" stroke-dasharray="1,2" d="M725 704l0 -640M742 704l0 -640M754 704l0 -640"/>
<path stroke="black" d="M764 704l0 -640"/>
<text stroke="none" fill="black" font-size="16" x="744" y="728">
10^8
</text>
<path stroke="black" stroke-dasharray="1,2" d="M822 704l0 -640M839 704l0 -640M851 704l0 -640"/>
<path stroke="black" d="M861 704l0 -640"/>
<text stroke="none" fill="black" font-size="16" x="841" y="728">
10^9
</text>
<path stroke="black" stroke-dasharray="1,2" d="M919 704l0 -640M936 704l0 -640M948 704l0 -640"/>
<path stroke="black" d="M958 704l0 -640"/>
<text stroke="none" fill="black" font-size="16" x="933" y="728">
10^10
</text>
<text stroke="none" fill="black" font-size="16" x="614" y="752">
Hz
</text>
<path stroke="black" stroke-dasharray="1,2" d="M85 704l873 0"/>
<text stroke="none" fill="black" font-size="16" x="33" y="712">
-30.0
</text>
<path stroke="black" stroke-dasharray="1,2" d="M85 640l873 0"/>
<text stroke="none" fill="black" font-size="16" x="33" y="648">
-20.0
</text>
<path stroke="black" stroke-dasharray="1,2" d="M85 576l873 0"/>
<text stroke="none" fill="black" font-size="16" x="33" y="584">
-10.0
</text>
<path stroke="black" d="M85 512l873 0"/>
<text stroke="none" fill="black" font-size="16" x="53" y="520">
0.0
</text>
<path stroke="black" stroke-dasharray="1,2" d="M85 448l873 0"/>
<text stroke="none" fill="black" font-size="16" x="43" y="456">
10.0
</text>
<path stroke="black" stroke-dasharray="1,2" d="M85 384l873 0"/>
<text stroke="none" fill="black" font-size="16" x="43" y="392">
20.0
</text>
<path stroke="black" stroke-dasharray="1,2" d="M85 320l873 0"/>
<text stroke="none" fill="black" font-size="16" x="43" y="328">
30.0
</text>
<path stroke="black" stroke-dasharray="1,2" d="M85 256l873 0"/>
<text stroke="none" fill="black" font-size="16" x="43" y="264">
40.0
</text>
<path stroke="black" stroke-dasharray="1,2" d="M85 192l873 0"/>
<text stroke="none" fill="black" font-size="16" x="43" y="200">
50.0
</text>
<path stroke="black" stroke-dasharray="1,2" d="M85 128l873 0"/>
<text stroke="none" fill="black" font-size="16" x="43" y="136">
60.0
</text>
<path stroke="black" stroke-dasharray="1,2" d="M85 64l873 0"/>
<text stroke="none" fill="black" font-size="16" x="43" y="72">
70.0
</text>
<text stroke="none" fill="black" font-size="16" x="10" y="32">
dB
</text>
<path stroke="blue" d="M85 91l284 0 1 1 26 0 1 1 11 0M408 94l0 -1M408 94l8 0M416 95l0 -1M416 95l6 0M422 96l0 -1M422 96l4 0 1 1 3 0 1 1 3 0M434 99l0 -1M434 99l3 0M437 100l0 -1M437 100l3 0M440 101l0 -1M440 101l2 0M442 102l0 -1M442 102l2 0 1 1 2 0"/>
<path stroke="blue" d="M447 104l0 -1M447 104l2 0M449 105l0 -1M449 105l2 0M451 106l0 -1M451 106l2 0M453 107l0 -1M453 107l1 0 1 1 1 0 2 2 1 0M459 111l0 -1M459 111l1 0 1 1 1 0M462 113l0 -1M462 113l1 0 1 1 1 0M465 115l0 -1M465 115l1 0 2 2 1 0M469 118l0 -1"/>
<path stroke="blue" d="M469 118l1 0M470 119l0 -1M470 119l1 0 6 6 1 0M478 126l0 -1M478 126l1 0M479 127l0 -1M479 127l1 0M480 128l0 -1M480 128l1 0M481 129l0 -1M481 129l1 0M482 130l0 -1M482 130l1 0M483 131l0 -1M483 131l1 0M484 132l0 -1M484 132l1 0"/>
<path stroke="blue" d="M485 133l0 -1M485 133l1 0M486 134l0 -1M486 134l1 0M487 135l0 -1M487 135l1 0M488 136l0 -1M488 136l1 0M489 137l0 -1M489 137l6 6M495 144l0 -1M495 144l1 0M496 145l0 -1M496 145l1 0M497 146l0 -1M497 146l1 0M498 147l0 -1M498 147l1 0"/>
<path stroke="blue" d="M499 148l0 -1M499 148l1 0M500 149l0 -1M500 149l4 4M504 154l0 -1M504 154l1 0M505 155l0 -1M505 155l2 2M507 158l0 -1M507 158l1 0M508 159l0 -1M508 159l1 0M509 160l0 -1M509 160l4 4M513 165l0 -1M513 165l1 0M514 166l0 -1M514 166l1 0"/>
<path stroke="blue" d="M515 167l0 -1M515 167l3 3M518 171l0 -1M518 171l1 0M519 172l0 -1M519 172l1 0M520 173l0 -1M520 173l2 2M522 176l0 -1M522 176l2 2M524 179l0 -1M524 179l1 0M525 180l0 -1M525 180l1 0M526 181l0 -1M526 181l3 3M529 185l0 -1M529 185l1 0"/>
<path stroke="blue" d="M530 186l0 -1M530 186l3 3M533 190l0 -1M533 190l1 0M534 191l0 -1M534 191l3 3M537 195l0 -1M537 195l1 0M538 197l0 -2M538 197l1 0M539 198l0 -1M539 198l1 0M540 199l0 -1M540 199l2 2M542 202l0 -1M542 202l1 0M543 203l0 -1M543 203l1 0"/>
<path stroke="blue" d="M544 204l0 -1M544 204l2 2M546 207l0 -1M546 207l1 0M547 208l0 -1M547 208l1 0M548 209l0 -1M548 209l2 2M550 212l0 -1M550 212l1 0M551 213l0 -1M551 213l3 3M554 217l0 -1M554 217l1 1M555 219l0 -1M555 219l1 0M556 220l0 -1M556 220l3 3"/>
<path stroke="blue" d="M559 224l0 -1M559 224l1 0M560 225l0 -1M560 225l3 3M563 229l0 -1M563 229l1 0M564 230l0 -1M564 230l2 2M566 233l0 -1M566 233l1 0M567 234l0 -1M567 234l1 0M568 235l0 -1M568 235l2 2M570 238l0 -1M570 238l1 1M571 240l0 -1M571 240l1 0"/>
<path stroke="blue" d="M572 241l0 -1M572 241l1 0M573 242l0 -1M573 242l2 2M575 245l0 -1M575 245l1 0M576 246l0 -1M576 246l3 3M579 250l0 -1M579 250l1 0M580 251l0 -1M580 251l2 2M582 254l0 -1M582 254l1 0M583 255l0 -1M583 255l3 3M586 259l0 -1M586 259l1 1"/>
<path stroke="blue" d="M587 261l0 -1M587 261l1 0M588 262l0 -1M588 262l3 3M591 266l0 -1M591 266l1 0M592 267l0 -1M592 267l2 2M594 270l0 -1M594 270l1 0M595 271l0 -1M595 271l1 0M596 272l0 -1M596 272l2 2M598 275l0 -1M598 275l1 0M599 276l0 -1M599 276l2 2"/>
<path stroke="blue" d="M601 279l0 -1M601 279l1 0M602 280l0 -1M602 280l1 1M603 282l0 -1M603 282l1 0M604 283l0 -1M604 283l2 2M606 286l0 -1M606 286l1 0M607 287l0 -1M607 287l1 0M608 288l0 -1M608 288l2 2M610 291l0 -1M610 291l1 0M611 292l0 -1M611 292l3 3"/>
<path stroke="blue" d="M614 296l0 -1M614 296l1 0M615 297l0 -1M615 297l2 2M617 300l0 -1M617 300l1 0M618 301l0 -1M618 301l1 1M619 303l0 -1M619 303l1 0M620 304l0 -1M620 304l2 2M622 307l0 -1M622 307l1 0M623 308l0 -1M623 308l3 3M626 312l0 -1M626 312l1 0"/>
<path stroke="blue" d="M627 313l0 -1M627 313l2 2M629 316l0 -1M629 316l1 0M630 317l0 -1M630 317l3 3M633 321l0 -1M633 321l1 0M634 322l0 -1M634 322l1 1M635 324l0 -1M635 324l3 3M638 328l0 -1M638 328l1 0M639 329l0 -1M639 329l2 2M641 332l0 -1M641 332l1 0"/>
<path stroke="blue" d="M642 333l0 -1M642 333l3 3M645 337l0 -1M645 337l1 0M646 338l0 -1M646 338l2 2M648 341l0 -1M648 341l1 0M649 342l0 -1M649 342l1 0M650 343l0 -1M650 343l1 1M651 345l0 -1M651 345l2 2M653 348l0 -1M653 348l1 0M654 349l0 -1M654 349l3 3"/>
<path stroke="blue" d="M657 353l0 -1M657 353l1 0M658 354l0 -1M658 354l2 2M660 357l0 -1M660 357l1 0M661 358l0 -1M661 358l1 0M662 359l0 -1M662 359l2 2M664 362l0 -1M664 362l1 0M665 363l0 -1M665 363l2 2M667 366l0 -1M667 366l2 2M669 369l0 -1M669 369l1 0"/>
<path stroke="blue" d="M670 370l0 -1M670 370l2 2M672 373l0 -1M672 373l1 0M673 374l0 -1M673 374l3 3M676 378l0 -1M676 378l1 0M677 379l0 -1M677 379l2 2M679 382l0 -1M679 382l1 0M680 383l0 -1M680 383l1 0M681 384l0 -1M681 384l2 2M683 387l0 -1M683 387l1 1"/>
<path stroke="blue" d="M684 389l0 -1M684 389l1 0M685 390l0 -1M685 390l3 3M688 394l0 -1M688 394l1 0M689 395l0 -1M689 395l2 2M691 398l0 -1M691 398l1 0M692 399l0 -1M692 399l3 3M695 403l0 -1M695 403l1 0M696 404l0 -1M696 404l2 2M698 407l0 -1M698 407l1 0"/>
<path stroke="blue" d="M699 409l0 -2M699 409l1 0M700 410l0 -1M700 410l1 0M701 411l0 -1M701 411l2 2M703 414l0 -1M703 414l1 0M704 415l0 -1M704 415l2 2M706 418l0 -1M706 418l1 0M707 419l0 -1M707 419l1 0M708 420l0 -1M708 420l2 2M710 423l0 -1M710 423l1 0"/>
<path stroke="blue" d="M711 424l0 -1M711 424l2 2M713 427l0 -1M713 427l1 0M714 428l0 -1M714 428l1 0M715 429l0 -1M715 429l1 1M716 431l0 -1M716 431l2 2M718 434l0 -1M718 434l1 0M719 435l0 -1M719 435l3 3M722 439l0 -1M722 439l1 0M723 440l0 -1M723 440l2 2"/>
<path stroke="blue" d="M725 443l0 -1M725 443l1 0M726 444l0 -1M726 444l2 2M728 447l0 -1M728 447l1 0M729 448l0 -1M729 448l3 3M732 452l0 -1M732 452l1 1M733 454l0 -1M733 454l1 0M734 455l0 -1M734 455l2 2M736 458l0 -1M736 458l1 0M737 459l0 -1M737 459l2 2"/>
<path stroke="blue" d="M739 462l0 -1M739 462l1 0M740 463l0 -1M740 463l3 3M743 467l0 -1M743 467l1 0M744 468l0 -1M744 468l2 2M746 471l0 -1M746 471l1 0M747 472l0 -1M747 472l1 1M748 474l0 -1M748 474l2 2M750 477l0 -1M750 477l1 0M751 478l0 -1M751 478l2 2"/>
<path stroke="blue" d="M753 481l0 -1M753 481l1 0M754 482l0 -1M754 482l2 2M756 485l0 -1M756 485l1 0M757 486l0 -1M757 486l2 2M759 489l0 -1M759 489l2 2M761 492l0 -1M761 492l1 0M762 493l0 -1M762 493l2 2M764 496l0 -1M764 496l1 1M765 498l0 -1M765 498l1 0"/>
<path stroke="blue" d="M766 499l0 -1M766 499l2 2M768 502l0 -1M768 502l2 2M770 505l0 -1M770 505l1 0M771 506l0 -1M771 506l2 2M773 509l0 -1M773 509l2 2M775 512l0 -1M775 512l1 0M776 513l0 -1M776 513l1 1M777 515l0 -1M777 515l1 0M778 516l0 -1M778 516l2 2"/>
<path stroke="blue" d="M780 520l0 -2M780 520l1 0M781 521l0 -1M781 521l1 1M782 523l0 -1M782 523l1 0M783 524l0 -1M783 524l1 1M784 526l0 -1M784 526l1 0M785 527l0 -1M785 527l1 1M786 529l0 -1M786 529l1 0M787 530l0 -1M787 530l1 1M788 532l0 -1M788 532l1 0"/>
<path stroke="blue" d="M789 533l0 -1M789 533l1 1M790 535l0 -1M790 535l1 0M791 536l0 -1M791 536l1 1M792 538l0 -1M792 538l2 2M794 541l0 -1M794 541l2 2M796 545l0 -2M796 545l2 2M798 548l0 -1M798 548l1 1M799 550l0 -1M799 550l2 2M801 553l0 -1M801 553l1 1"/>
<path stroke="blue" d="M802 555l0 -1M802 555l1 0M803 556l0 -1M803 556l1 1M804 558l0 -1M804 558l1 1M805 560l0 -1M805 560l1 0M806 561l0 -1M806 561l1 1M807 563l0 -1M807 563l1 1M808 565l0 -1M808 565l2 2M810 568l0 -1M810 568l1 1M811 570l0 -1M811 570l1 1"/>
<path stroke="blue" d="M812 572l0 -1M812 572l1 0M813 574l0 -2M813 574l1 1M814 576l0 -1M814 576l1 1M815 578l0 -1M815 578l1 1M816 580l0 -1M816 580l1 0M817 581l0 -1M817 581l1 1M818 583l0 -1M818 583l1 1M819 585l0 -1M819 585l1 1M820 587l0 -1M820 587l1 1"/>
<path stroke="blue" d="M821 589l0 -1M821 589l1 0M822 590l0 -1M822 590l1 1M823 592l0 -1M823 592l1 1M824 594l0 -1M824 594l1 1M825 596l0 -1M825 596l1 1M826 598l0 -1M826 598l1 1M827 600l0 -1M827 600l2 2M829 604l0 -2M829 604l1 1M830 606l0 -1M830 606l1 1"/>
<path stroke="blue" d="M831 608l0 -1M831 608l1 1M832 610l0 -1M832 610l1 1M833 612l0 -1M833 612l2 2M835 615l0 -1M835 615l1 1M836 617l0 -1M836 617l1 1M837 619l0 -1M837 619l1 1M838 621l0 -1M838 621l1 1M839 623l0 -1M839 623l1 1M840 625l0 -1M840 625l2 2"/>
<path stroke="blue" d="M842 628l0 -1M842 628l1 1M843 630l0 -1M843 630l1 1M844 632l0 -1M844 632l1 1M845 635l0 -2M845 635l2 2M847 638l0 -1M847 638l1 1M848 640l0 -1M848 640l1 1M849 642l0 -1M849 642l1 1M850 644l0 -1M850 644l1 0M851 645l0 -1M851 645l1 1"/>
<path stroke="blue" d="M852 647l0 -1M852 647l1 1M853 649l0 -1M853 649l1 1M854 651l0 -1M854 651l1 0M855 652l0 -1M855 652l1 1M856 654l0 -1M856 654l1 1M857 656l0 -1M857 656l1 0M858 657l0 -1M858 657l1 1M859 659l0 -1M859 659l1 1M860 661l0 -1M860 661l1 0"/>
<path stroke="blue" d="M861 662l0 -1"/>
</svg>
