<?xml version="1.0" standalone="yes"?>
<!DOCTYPE svg PUBLIC "-//W3C//DTD SVG 1.1//EN"
 "http://www.w3.org/Graphics/SVG/1.1/DTD/svg11.dtd">
<svg xmlns="http://www.w3.org/2000/svg" version="1.1"
  width="100%" height="100%" viewBox="0 0 1024 768"
  style="fill: none; font-family: Helvetica;
 font: Helvetica;
">

<!-- Creator: NGspice -->

<rect x="0" y="0" width="1024" height="768" fill="white" stroke="none"/>
<text stroke="none" fill="black" font-size="16" x="358" y="752">
time[s]
</text>
<text transform="rotate(-90, 20, 434)"  stroke="none" fill="black" font-size="16" x="20" y="434">
output[mV]
</text>
<text stroke="none" fill="black" font-size="16" x="10" y="16">
tran1: Outputvoltage
</text>
<path stroke="black" d="M95 704l0 -640"/>
<text stroke="none" fill="black" font-size="16" x="80" y="728">
0.0
</text>
<path stroke="black" stroke-dasharray="1,2" d="M180 704l0 -640"/>
<text stroke="none" fill="black" font-size="16" x="165" y="728">
5.0
</text>
<path stroke="black" stroke-dasharray="1,2" d="M265 704l0 -640"/>
<text stroke="none" fill="black" font-size="16" x="245" y="728">
10.0
</text>
<path stroke="black" stroke-dasharray="1,2" d="M350 704l0 -640"/>
<text stroke="none" fill="black" font-size="16" x="330" y="728">
15.0
</text>
<path stroke="black" stroke-dasharray="1,2" d="M435 704l0 -640"/>
<text stroke="none" fill="black" font-size="16" x="415" y="728">
20.0
</text>
<path stroke="black" stroke-dasharray="1,2" d="M520 704l0 -640"/>
<text stroke="none" fill="black" font-size="16" x="500" y="728">
25.0
</text>
<path stroke="black" stroke-dasharray="1,2" d="M605 704l0 -640"/>
<text stroke="none" fill="black" font-size="16" x="585" y="728">
30.0
</text>
<path stroke="black" stroke-dasharray="1,2" d="M690 704l0 -640"/>
<text stroke="none" fill="black" font-size="16" x="670" y="728">
35.0
</text>
<path stroke="black" stroke-dasharray="1,2" d="M775 704l0 -640"/>
<text stroke="none" fill="black" font-size="16" x="755" y="728">
40.0
</text>
<path stroke="black" stroke-dasharray="1,2" d="M860 704l0 -640"/>
<text stroke="none" fill="black" font-size="16" x="840" y="728">
45.0
</text>
<path stroke="black" stroke-dasharray="1,2" d="M945 704l0 -640"/>
<text stroke="none" fill="black" font-size="16" x="925" y="728">
50.0
</text>
<text stroke="none" fill="black" font-size="16" x="614" y="752">
ms
</text>
<path stroke="black" stroke-dasharray="1,2" d="M95 704l850 0"/>
<text stroke="none" fill="black" font-size="16" x="43" y="712">
880.0
</text>
<path stroke="black" stroke-dasharray="1,2" d="M95 624l850 0"/>
<text stroke="none" fill="black" font-size="16" x="43" y="632">
885.0
</text>
<path stroke="black" stroke-dasharray="1,2" d="M95 544l850 0"/>
<text stroke="none" fill="black" font-size="16" x="43" y="552">
890.0
</text>
<path stroke="black" stroke-dasharray="1,2" d="M95 464l850 0"/>
<text stroke="none" fill="black" font-size="16" x="43" y="472">
895.0
</text>
<path stroke="black" stroke-dasharray="1,2" d="M95 384l850 0"/>
<text stroke="none" fill="black" font-size="16" x="43" y="392">
900.0
</text>
<path stroke="black" stroke-dasharray="1,2" d="M95 304l850 0"/>
<text stroke="none" fill="black" font-size="16" x="43" y="312">
905.0
</text>
<path stroke="black" stroke-dasharray="1,2" d="M95 224l850 0"/>
<text stroke="none" fill="black" font-size="16" x="43" y="232">
910.0
</text>
<path stroke="black" stroke-dasharray="1,2" d="M95 144l850 0"/>
<text stroke="none" fill="black" font-size="16" x="43" y="152">
915.0
</text>
<path stroke="black" stroke-dasharray="1,2" d="M95 64l850 0"/>
<text stroke="none" fill="black" font-size="16" x="43" y="72">
920.0
</text>
<text stroke="none" fill="black" font-size="16" x="10" y="32">
mV
</text>
<path stroke="blue" d="M95 376l0 -4 1 -2 0 -9 1 -2 0 -10 1 -2 0 -10 1 -2 0 -9 1 -2 0 -10 1 -2 0 -7 1 -2 0 -9 1 -2 0 -9 1 -2 0 -9 1 -2 0 -9 1 -2 0 -9 1 -2 0 -8 1 -2 0 -8 1 -2 0 -8 1 -2 0 -7 1 -1 0 -8 1 -2 0 -8 1 -1 0 -8 1 -1 0 -7 1 -2 0 -7 1 -1"/>
<path stroke="blue" d="M116 165l0 -7 1 -1 0 -7 1 -1 0 -5 1 -1 0 -6 1 -2 0 -5 1 -1 0 -6 1 -1 0 -5 1 -1 0 -5 1 -1 0 -4 1 -1 0 -4 1 -1 0 -4 1 -1 0 -3 1 0 0 -4 1 0 0 -3 1 -1 0 -2 1 -1 0 -2 1 0 0 -2 1 -1 0 -1 1 0 0 -2 1 0 0 -1 2 0 0 -1 1 0M138 72l0 -1"/>
<path stroke="blue" d="M138 72l2 0M140 73l0 -1M140 73l1 0M141 75l0 -2M141 75l1 0M142 76l0 -1M142 76l1 1M143 79l0 -2M143 79l1 0M144 81l0 -2M144 81l1 0M145 84l0 -3M145 84l1 0M146 87l0 -3M146 87l1 1M147 91l0 -3M147 91l1 1M148 95l0 -3M148 95l1 1"/>
<path stroke="blue" d="M149 100l0 -4M149 100l1 1M150 105l0 -4M150 105l1 1M151 110l0 -4M151 110l1 1M152 115l0 -4M152 115l1 1M153 121l0 -5M153 121l1 1M154 128l0 -6M154 128l1 1M155 134l0 -5M155 134l1 2M156 142l0 -6M156 142l1 1M157 149l0 -6M157 149l1 1"/>
<path stroke="blue" d="M158 157l0 -7M158 157l1 1M159 165l0 -7M159 165l1 1M160 173l0 -7M160 173l1 2M161 181l0 -6M161 181l1 1M162 190l0 -8M162 190l1 1M163 199l0 -8M163 199l1 1M164 208l0 -8M164 208l1 2M165 218l0 -8M165 218l1 2M166 228l0 -8M166 228l1 2"/>
<path stroke="blue" d="M167 238l0 -8M167 238l1 2M168 249l0 -9M168 249l1 1M169 257l0 -7M169 257l1 2M170 268l0 -9M170 268l1 2M171 279l0 -9M171 279l1 2M172 290l0 -9M172 290l1 2M173 301l0 -9M173 301l1 2M174 313l0 -10M174 313l1 2M175 324l0 -9M175 324l1 2"/>
<path stroke="blue" d="M176 336l0 -10M176 336l1 2M177 347l0 -9M177 347l1 2M178 357l0 -8M178 357l1 2M179 369l0 -10M179 369l1 2M180 380l0 -9M180 380l1 2M181 392l0 -10M181 392l1 2M182 404l0 -10M182 404l1 2M183 415l0 -9M183 415l1 2M184 427l0 -10"/>
<path stroke="blue" d="M184 427l1 2M185 439l0 -10M185 439l1 2M186 448l0 -7M186 448l1 2M187 460l0 -10M187 460l1 2M188 471l0 -9M188 471l1 2M189 482l0 -9M189 482l1 2M190 493l0 -9M190 493l1 2M191 504l0 -9M191 504l1 2M192 515l0 -9M192 515l1 2M193 526l0 -9"/>
<path stroke="blue" d="M193 526l1 1M194 536l0 -9M194 536l1 2M195 544l0 -6M195 544l1 2M196 554l0 -8M196 554l1 2M197 564l0 -8M197 564l1 2M198 574l0 -8M198 574l1 1M199 583l0 -8M199 583l1 1M200 592l0 -8M200 592l1 1M201 600l0 -7M201 600l1 2M202 609l0 -7"/>
<path stroke="blue" d="M202 609l1 1M203 615l0 -5M203 615l1 2M204 623l0 -6M204 623l1 1M205 630l0 -6M205 630l1 1M206 637l0 -6M206 637l1 1M207 644l0 -6M207 644l1 1M208 650l0 -5M208 650l1 1M209 656l0 -5M209 656l1 1M210 661l0 -4M210 661l1 1M211 666l0 -4"/>
<path stroke="blue" d="M211 666l1 1M212 670l0 -3M212 670l1 1M213 674l0 -3M213 674l1 1M214 678l0 -3M214 678l1 1M215 682l0 -3M215 682l1 0M216 685l0 -3M216 685l1 0M217 687l0 -2M217 687l1 0M218 689l0 -2M218 689l1 0M219 691l0 -2M219 691l1 0M220 692l0 -1"/>
<path stroke="blue" d="M220 692l2 0M222 693l0 -1M222 693l1 0 1 -1 1 0 0 -1 1 0 0 -2 1 0 0 -2 1 0 0 -2 1 -1 0 -1 1 -1 0 -3 1 0 0 -3 1 -1 0 -3 1 -1 0 -4 1 -1 0 -4 1 -1 0 -4 1 -1 0 -5 1 -1 0 -4 1 -1 0 -6 1 -1 0 -6 1 -1 0 -6 1 -1 0 -6 1 -2 0 -6 1 -2"/>
<path stroke="blue" d="M243 608l0 -6 1 -2 0 -7 1 -1 0 -8 1 -1 0 -6 1 -2 0 -8 1 -1 0 -8 1 -2 0 -8 1 -2 0 -8 1 -2 0 -9 1 -2 0 -8 1 -2 0 -9 1 -2 0 -7 1 -2 0 -9 1 -2 0 -9 1 -2 0 -10 1 -2 0 -9 1 -2 0 -10 1 -2 0 -9 1 -2 0 -10 1 -2 0 -10 1 -2 0 -7 1 -2"/>
<path stroke="blue" d="M264 394l0 -10 1 -2 0 -10 1 -2 0 -9 1 -2 0 -10 1 -2 0 -10 1 -2 0 -9 1 -2 0 -10 1 -2 0 -7 1 -2 0 -9 1 -2 0 -9 1 -2 0 -9 1 -2 0 -9 1 -2 0 -9 1 -2 0 -8 1 -2 0 -8 1 -2 0 -8 1 -2 0 -7 1 -1 0 -8 1 -2 0 -8 1 -1 0 -8 1 -1 0 -7"/>
<path stroke="blue" d="M284 175l1 -2 0 -7 1 -1 0 -7 1 -1 0 -7 1 -1 0 -5 1 -1 0 -6 1 -2 0 -5 1 -1 0 -6 1 -1 0 -5 1 -1 0 -5 1 -1 0 -4 1 -1 0 -4 1 -1 0 -4 1 -1 0 -3 1 0 0 -4 1 0 0 -3 1 -1 0 -2 1 -1 0 -2 1 0 0 -2 1 -1 0 -1 1 0 0 -2 1 0 0 -1 2 0 0 -1"/>
<path stroke="blue" d="M307 71l1 0M308 72l0 -1M308 72l2 0M310 73l0 -1M310 73l1 0M311 75l0 -2M311 75l1 0M312 76l0 -1M312 76l1 1M313 79l0 -2M313 79l1 0M314 81l0 -2M314 81l1 0M315 84l0 -3M315 84l1 0M316 87l0 -3M316 87l1 1M317 91l0 -3M317 91l1 1"/>
<path stroke="blue" d="M318 95l0 -3M318 95l1 1M319 100l0 -4M319 100l1 1M320 105l0 -4M320 105l1 1M321 110l0 -4M321 110l1 1M322 115l0 -4M322 115l1 1M323 121l0 -5M323 121l1 1M324 128l0 -6M324 128l1 1M325 134l0 -5M325 134l1 2M326 142l0 -6M326 142l1 1"/>
<path stroke="blue" d="M327 149l0 -6M327 149l1 1M328 157l0 -7M328 157l1 1M329 165l0 -7M329 165l1 1M330 173l0 -7M330 173l1 2M331 181l0 -6M331 181l1 1M332 190l0 -8M332 190l1 1M333 199l0 -8M333 199l1 1M334 208l0 -8M334 208l1 2M335 218l0 -8M335 218l1 2"/>
<path stroke="blue" d="M336 228l0 -8M336 228l1 2M337 238l0 -8M337 238l1 2M338 249l0 -9M338 249l1 1M339 257l0 -7M339 257l1 2M340 268l0 -9M340 268l1 2M341 279l0 -9M341 279l1 2M342 290l0 -9M342 290l1 2M343 301l0 -9M343 301l1 2M344 313l0 -10M344 313l1 2"/>
<path stroke="blue" d="M345 324l0 -9M345 324l1 2M346 336l0 -10M346 336l1 2M347 347l0 -9M347 347l1 2M348 357l0 -8M348 357l1 2M349 369l0 -10M349 369l1 2M350 380l0 -9M350 380l1 2M351 392l0 -10M351 392l1 2M352 404l0 -10M352 404l1 2M353 415l0 -9M353 415l1 2"/>
<path stroke="blue" d="M354 427l0 -10M354 427l1 2M355 439l0 -10M355 439l1 2M356 448l0 -7M356 448l1 2M357 460l0 -10M357 460l1 2M358 471l0 -9M358 471l1 2M359 482l0 -9M359 482l1 2M360 493l0 -9M360 493l1 2M361 504l0 -9M361 504l1 2M362 515l0 -9M362 515l1 2"/>
<path stroke="blue" d="M363 526l0 -9M363 526l1 1M364 536l0 -9M364 536l1 2M365 544l0 -6M365 544l1 2M366 554l0 -8M366 554l1 2M367 564l0 -8M367 564l1 2M368 574l0 -8M368 574l1 1M369 583l0 -8M369 583l1 1M370 592l0 -8M370 592l1 1M371 600l0 -7M371 600l1 2"/>
<path stroke="blue" d="M372 609l0 -7M372 609l1 1M373 615l0 -5M373 615l1 2M374 623l0 -6M374 623l1 1M375 630l0 -6M375 630l1 1M376 637l0 -6M376 637l1 1M377 644l0 -6M377 644l1 1M378 650l0 -5M378 650l1 1M379 656l0 -5M379 656l1 1M380 661l0 -4M380 661l1 1"/>
<path stroke="blue" d="M381 666l0 -4M381 666l1 1M382 670l0 -3M382 670l1 1M383 674l0 -3M383 674l1 1M384 678l0 -3M384 678l1 1M385 682l0 -3M385 682l1 0M386 685l0 -3M386 685l1 0M387 687l0 -2M387 687l1 0M388 689l0 -2M388 689l1 0M389 691l0 -2M389 691l1 0"/>
<path stroke="blue" d="M390 692l0 -1M390 692l2 0M392 693l0 -1M392 693l1 0 1 -1 1 0 0 -1 1 0 0 -2 1 0 0 -2 1 0 0 -2 1 -1 0 -1 1 -1 0 -3 1 0 0 -3 1 -1 0 -3 1 -1 0 -4 1 -1 0 -4 1 -1 0 -4 1 -1 0 -5 1 -1 0 -4 1 -1 0 -6 1 -1 0 -6 1 -1 0 -6 1 -1 0 -6"/>
<path stroke="blue" d="M411 618l1 -2 0 -6 1 -2 0 -6 1 -2 0 -7 1 -1 0 -8 1 -1 0 -6 1 -2 0 -8 1 -1 0 -8 1 -2 0 -8 1 -2 0 -8 1 -2 0 -9 1 -2 0 -8 1 -2 0 -9 1 -2 0 -7 1 -2 0 -9 1 -2 0 -9 1 -2 0 -10 1 -2 0 -9 1 -2 0 -10 1 -2 0 -9 1 -2 0 -10 1 -2 0 -10"/>
<path stroke="blue" d="M432 405l1 -2 0 -7 1 -2 0 -10 1 -2 0 -10 1 -2 0 -9 1 -2 0 -10 1 -2 0 -10 1 -2 0 -9 1 -2 0 -10 1 -2 0 -7 1 -2 0 -9 1 -2 0 -9 1 -2 0 -9 1 -2 0 -9 1 -2 0 -9 1 -2 0 -8 1 -2 0 -8 1 -2 0 -8 1 -2 0 -7 1 -1 0 -8 1 -2 0 -8 1 -1"/>
<path stroke="blue" d="M453 191l0 -8 1 -1 0 -7 1 -2 0 -7 1 -1 0 -7 1 -1 0 -7 1 -1 0 -5 1 -1 0 -6 1 -2 0 -5 1 -1 0 -6 1 -1 0 -5 1 -1 0 -5 1 -1 0 -4 1 -1 0 -4 1 -1 0 -4 1 -1 0 -3 1 0 0 -4 1 0 0 -3 1 -1 0 -2 1 -1 0 -2 1 0 0 -2 1 -1 0 -1 1 0 0 -2"/>
<path stroke="blue" d="M474 73l1 0 0 -1 2 0 0 -1 1 0M478 72l0 -1M478 72l2 0M480 73l0 -1M480 73l1 0M481 75l0 -2M481 75l1 0M482 76l0 -1M482 76l1 1M483 79l0 -2M483 79l1 0M484 81l0 -2M484 81l1 0M485 84l0 -3M485 84l1 0M486 87l0 -3M486 87l1 1M487 91l0 -3"/>
<path stroke="blue" d="M487 91l1 1M488 95l0 -3M488 95l1 1M489 100l0 -4M489 100l1 1M490 105l0 -4M490 105l1 1M491 110l0 -4M491 110l1 1M492 115l0 -4M492 115l1 1M493 121l0 -5M493 121l1 1M494 128l0 -6M494 128l1 1M495 134l0 -5M495 134l1 2M496 142l0 -6"/>
<path stroke="blue" d="M496 142l1 1M497 149l0 -6M497 149l1 1M498 157l0 -7M498 157l1 1M499 165l0 -7M499 165l1 1M500 173l0 -7M500 173l1 2M501 181l0 -6M501 181l1 1M502 190l0 -8M502 190l1 1M503 199l0 -8M503 199l1 1M504 208l0 -8M504 208l1 2M505 218l0 -8"/>
<path stroke="blue" d="M505 218l1 2M506 228l0 -8M506 228l1 2M507 238l0 -8M507 238l1 2M508 249l0 -9M508 249l1 1M509 257l0 -7M509 257l1 2M510 268l0 -9M510 268l1 2M511 279l0 -9M511 279l1 2M512 290l0 -9M512 290l1 2M513 301l0 -9M513 301l1 2M514 313l0 -10"/>
<path stroke="blue" d="M514 313l1 2M515 324l0 -9M515 324l1 2M516 336l0 -10M516 336l1 2M517 347l0 -9M517 347l1 2M518 357l0 -8M518 357l1 2M519 369l0 -10M519 369l1 2M520 380l0 -9M520 380l1 2M521 392l0 -10M521 392l1 2M522 404l0 -10M522 404l1 2M523 415l0 -9"/>
<path stroke="blue" d="M523 415l1 2M524 427l0 -10M524 427l1 2M525 439l0 -10M525 439l1 2M526 448l0 -7M526 448l1 2M527 460l0 -10M527 460l1 2M528 471l0 -9M528 471l1 2M529 482l0 -9M529 482l1 2M530 493l0 -9M530 493l1 2M531 504l0 -9M531 504l1 2M532 515l0 -9"/>
<path stroke="blue" d="M532 515l1 2M533 526l0 -9M533 526l1 1M534 536l0 -9M534 536l1 2M535 544l0 -6M535 544l1 2M536 554l0 -8M536 554l1 2M537 564l0 -8M537 564l1 2M538 574l0 -8M538 574l1 1M539 583l0 -8M539 583l1 1M540 592l0 -8M540 592l1 1M541 600l0 -7"/>
<path stroke="blue" d="M541 600l1 2M542 609l0 -7M542 609l1 1M543 615l0 -5M543 615l1 2M544 623l0 -6M544 623l1 1M545 630l0 -6M545 630l1 1M546 637l0 -6M546 637l1 1M547 644l0 -6M547 644l1 1M548 650l0 -5M548 650l1 1M549 656l0 -5M549 656l1 1M550 661l0 -4"/>
<path stroke="blue" d="M550 661l1 1M551 666l0 -4M551 666l1 1M552 670l0 -3M552 670l1 1M553 674l0 -3M553 674l1 1M554 678l0 -3M554 678l1 1M555 682l0 -3M555 682l1 0M556 685l0 -3M556 685l1 0M557 687l0 -2M557 687l1 0M558 689l0 -2M558 689l1 0M559 691l0 -2"/>
<path stroke="blue" d="M559 691l1 0M560 692l0 -1M560 692l2 0M562 693l0 -1M562 693l1 0 1 -1 1 0 0 -1 1 0 0 -2 1 0 0 -2 1 0 0 -2 1 -1 0 -1 1 -1 0 -3 1 0 0 -3 1 -1 0 -3 1 -1 0 -4 1 -1 0 -4 1 -1 0 -4 1 -1 0 -5 1 -1 0 -4 1 -1 0 -6 1 -1 0 -6 1 -1 0 -6"/>
<path stroke="blue" d="M580 625l1 -1 0 -6 1 -2 0 -6 1 -2 0 -6 1 -2 0 -7 1 -1 0 -8 1 -1 0 -6 1 -2 0 -8 1 -1 0 -8 1 -2 0 -8 1 -2 0 -8 1 -2 0 -9 1 -2 0 -8 1 -2 0 -9 1 -2 0 -7 1 -2 0 -9 1 -2 0 -9 1 -2 0 -10 1 -2 0 -9 1 -2 0 -10 1 -2 0 -9 1 -2 0 -10"/>
<path stroke="blue" d="M601 417l1 -2 0 -10 1 -2 0 -7 1 -2 0 -10 1 -2 0 -10 1 -2 0 -9 1 -2 0 -10 1 -2 0 -10 1 -2 0 -9 1 -2 0 -10 1 -2 0 -7 1 -2 0 -9 1 -2 0 -9 1 -2 0 -9 1 -2 0 -9 1 -2 0 -9 1 -2 0 -8 1 -2 0 -8 1 -2 0 -8 1 -2 0 -7 1 -1 0 -8 1 -2"/>
<path stroke="blue" d="M622 200l0 -8 1 -1 0 -8 1 -1 0 -7 1 -2 0 -7 1 -1 0 -7 1 -1 0 -7 1 -1 0 -5 1 -1 0 -6 1 -2 0 -5 1 -1 0 -6 1 -1 0 -5 1 -1 0 -5 1 -1 0 -4 1 -1 0 -4 1 -1 0 -4 1 -1 0 -3 1 0 0 -4 1 0 0 -3 1 -1 0 -2 1 -1 0 -2 1 0 0 -2 1 -1 0 -1"/>
<path stroke="blue" d="M643 75l1 0 0 -2 1 0 0 -1 2 0 0 -1 1 0M648 72l0 -1M648 72l2 0M650 73l0 -1M650 73l1 0M651 75l0 -2M651 75l1 0M652 76l0 -1M652 76l1 1M653 79l0 -2M653 79l1 0M654 81l0 -2M654 81l1 0M655 84l0 -3M655 84l1 0M656 87l0 -3M656 87l1 1"/>
<path stroke="blue" d="M657 91l0 -3M657 91l1 1M658 95l0 -3M658 95l1 1M659 100l0 -4M659 100l1 1M660 105l0 -4M660 105l1 1M661 110l0 -4M661 110l1 1M662 115l0 -4M662 115l1 1M663 121l0 -5M663 121l1 1M664 128l0 -6M664 128l1 1M665 134l0 -5M665 134l1 2"/>
<path stroke="blue" d="M666 142l0 -6M666 142l1 1M667 149l0 -6M667 149l1 1M668 157l0 -7M668 157l1 1M669 165l0 -7M669 165l1 1M670 173l0 -7M670 173l1 2M671 181l0 -6M671 181l1 1M672 190l0 -8M672 190l1 1M673 199l0 -8M673 199l1 1M674 208l0 -8M674 208l1 2"/>
<path stroke="blue" d="M675 218l0 -8M675 218l1 2M676 228l0 -8M676 228l1 2M677 238l0 -8M677 238l1 2M678 249l0 -9M678 249l1 1M679 257l0 -7M679 257l1 2M680 268l0 -9M680 268l1 2M681 279l0 -9M681 279l1 2M682 290l0 -9M682 290l1 2M683 301l0 -9M683 301l1 2"/>
<path stroke="blue" d="M684 313l0 -10M684 313l1 2M685 324l0 -9M685 324l1 2M686 336l0 -10M686 336l1 2M687 347l0 -9M687 347l1 2M688 357l0 -8M688 357l1 2M689 369l0 -10M689 369l1 2M690 380l0 -9M690 380l1 2M691 392l0 -10M691 392l1 2M692 404l0 -10"/>
<path stroke="blue" d="M692 404l1 2M693 415l0 -9M693 415l1 2M694 427l0 -10M694 427l1 2M695 439l0 -10M695 439l1 2M696 448l0 -7M696 448l1 2M697 460l0 -10M697 460l1 2M698 471l0 -9M698 471l1 2M699 482l0 -9M699 482l1 2M700 493l0 -9M700 493l1 2M701 504l0 -9"/>
<path stroke="blue" d="M701 504l1 2M702 515l0 -9M702 515l1 2M703 526l0 -9M703 526l1 1M704 536l0 -9M704 536l1 2M705 544l0 -6M705 544l1 2M706 554l0 -8M706 554l1 2M707 564l0 -8M707 564l1 2M708 574l0 -8M708 574l1 1M709 583l0 -8M709 583l1 1M710 592l0 -8"/>
<path stroke="blue" d="M710 592l1 1M711 600l0 -7M711 600l1 2M712 609l0 -7M712 609l1 1M713 615l0 -5M713 615l1 2M714 623l0 -6M714 623l1 1M715 630l0 -6M715 630l1 1M716 637l0 -6M716 637l1 1M717 644l0 -6M717 644l1 1M718 650l0 -5M718 650l1 1M719 656l0 -5"/>
<path stroke="blue" d="M719 656l1 1M720 661l0 -4M720 661l1 1M721 666l0 -4M721 666l1 1M722 670l0 -3M722 670l1 1M723 674l0 -3M723 674l1 1M724 678l0 -3M724 678l1 1M725 682l0 -3M725 682l1 0M726 685l0 -3M726 685l1 0M727 687l0 -2M727 687l1 0M728 689l0 -2"/>
<path stroke="blue" d="M728 689l1 0M729 691l0 -2M729 691l1 0M730 692l0 -1M730 692l2 0M732 693l0 -1M732 693l1 0 1 -1 1 0 0 -1 1 0 0 -2 1 0 0 -2 1 0 0 -2 1 -1 0 -1 1 -1 0 -3 1 0 0 -3 1 -1 0 -3 1 -1 0 -4 1 -1 0 -4 1 -1 0 -4 1 -1 0 -5 1 -1 0 -4 1 -1"/>
<path stroke="blue" d="M748 645l0 -6 1 -1 0 -6 1 -1 0 -6 1 -1 0 -6 1 -2 0 -6 1 -2 0 -6 1 -2 0 -7 1 -1 0 -8 1 -1 0 -6 1 -2 0 -8 1 -1 0 -8 1 -2 0 -8 1 -2 0 -8 1 -2 0 -9 1 -2 0 -8 1 -2 0 -9 1 -2 0 -7 1 -2 0 -9 1 -2 0 -9 1 -2 0 -10 1 -2 0 -9 1 -2"/>
<path stroke="blue" d="M769 450l0 -10 1 -2 0 -9 1 -2 0 -10 1 -2 0 -10 1 -2 0 -7 1 -2 0 -10 1 -2 0 -10 1 -2 0 -9 1 -2 0 -10 1 -2 0 -10 1 -2 0 -9 1 -2 0 -10 1 -2 0 -7 1 -2 0 -9 1 -2 0 -9 1 -2 0 -9 1 -2 0 -9 1 -2 0 -9 1 -2 0 -8 1 -2 0 -8 1 -2 0 -8"/>
<path stroke="blue" d="M789 220l1 -2 0 -7 1 -1 0 -8 1 -2 0 -8 1 -1 0 -8 1 -1 0 -7 1 -2 0 -7 1 -1 0 -7 1 -1 0 -7 1 -1 0 -5 1 -1 0 -6 1 -2 0 -5 1 -1 0 -6 1 -1 0 -5 1 -1 0 -5 1 -1 0 -4 1 -1 0 -4 1 -1 0 -4 1 -1 0 -3 1 0 0 -4 1 0 0 -3 1 -1 0 -2 1 -1"/>
<path stroke="blue" d="M811 81l0 -2 1 0 0 -2 1 -1 0 -1 1 0 0 -2 1 0 0 -1 2 0 0 -1 1 0M818 72l0 -1M818 72l2 0M820 73l0 -1M820 73l1 0M821 75l0 -2M821 75l1 0M822 76l0 -1M822 76l1 1M823 79l0 -2M823 79l1 0M824 81l0 -2M824 81l1 0M825 84l0 -3M825 84l1 0"/>
<path stroke="blue" d="M826 87l0 -3M826 87l1 1M827 91l0 -3M827 91l1 1M828 95l0 -3M828 95l1 1M829 100l0 -4M829 100l1 1M830 105l0 -4M830 105l1 1M831 110l0 -4M831 110l1 1M832 115l0 -4M832 115l1 1M833 121l0 -5M833 121l1 1M834 128l0 -6M834 128l1 1"/>
<path stroke="blue" d="M835 134l0 -5M835 134l1 2M836 142l0 -6M836 142l1 1M837 149l0 -6M837 149l1 1M838 157l0 -7M838 157l1 1M839 165l0 -7M839 165l1 1M840 173l0 -7M840 173l1 2M841 181l0 -6M841 181l1 1M842 190l0 -8M842 190l1 1M843 199l0 -8M843 199l1 1"/>
<path stroke="blue" d="M844 208l0 -8M844 208l1 2M845 218l0 -8M845 218l1 2M846 228l0 -8M846 228l1 2M847 238l0 -8M847 238l1 2M848 249l0 -9M848 249l1 1M849 257l0 -7M849 257l1 2M850 268l0 -9M850 268l1 2M851 279l0 -9M851 279l1 2M852 290l0 -9M852 290l1 2"/>
<path stroke="blue" d="M853 301l0 -9M853 301l1 2M854 313l0 -10M854 313l1 2M855 324l0 -9M855 324l1 2M856 336l0 -10M856 336l1 2M857 347l0 -9M857 347l1 2M858 357l0 -8M858 357l1 2M859 369l0 -10M859 369l1 2M860 380l0 -9M860 380l1 2M861 392l0 -10M861 392l1 2"/>
<path stroke="blue" d="M862 404l0 -10M862 404l1 2M863 415l0 -9M863 415l1 2M864 427l0 -10M864 427l1 2M865 439l0 -10M865 439l1 2M866 448l0 -7M866 448l1 2M867 460l0 -10M867 460l1 2M868 471l0 -9M868 471l1 2M869 482l0 -9M869 482l1 2M870 493l0 -9M870 493l1 2"/>
<path stroke="blue" d="M871 504l0 -9M871 504l1 2M872 515l0 -9M872 515l1 2M873 526l0 -9M873 526l1 1M874 536l0 -9M874 536l1 2M875 544l0 -6M875 544l1 2M876 554l0 -8M876 554l1 2M877 564l0 -8M877 564l1 2M878 574l0 -8M878 574l1 1M879 583l0 -8M879 583l1 1"/>
<path stroke="blue" d="M880 592l0 -8M880 592l1 1M881 600l0 -7M881 600l1 2M882 609l0 -7M882 609l1 1M883 615l0 -5M883 615l1 2M884 623l0 -6M884 623l1 1M885 630l0 -6M885 630l1 1M886 637l0 -6M886 637l1 1M887 644l0 -6M887 644l1 1M888 650l0 -5M888 650l1 1"/>
<path stroke="blue" d="M889 656l0 -5M889 656l1 1M890 661l0 -4M890 661l1 1M891 666l0 -4M891 666l1 1M892 670l0 -3M892 670l1 1M893 674l0 -3M893 674l1 1M894 678l0 -3M894 678l1 1M895 682l0 -3M895 682l1 0M896 685l0 -3M896 685l1 0M897 687l0 -2M897 687l1 0"/>
<path stroke="blue" d="M898 689l0 -2M898 689l1 0M899 691l0 -2M899 691l1 0M900 692l0 -1M900 692l2 0M902 693l0 -1M902 693l1 0 1 -1 1 0 0 -1 1 0 0 -2 1 0 0 -2 1 0 0 -2 1 -1 0 -1 1 -1 0 -3 1 0 0 -3 1 -1 0 -3 1 -1 0 -4 1 -1 0 -4 1 -1 0 -4 1 -1 0 -5"/>
<path stroke="blue" d="M916 651l1 -1 0 -4 1 -1 0 -6 1 -1 0 -6 1 -1 0 -6 1 -1 0 -6 1 -2 0 -6 1 -2 0 -6 1 -2 0 -7 1 -1 0 -8 1 -1 0 -6 1 -2 0 -8 1 -1 0 -8 1 -2 0 -8 1 -2 0 -8 1 -2 0 -9 1 -2 0 -8 1 -2 0 -9 1 -2 0 -7 1 -2 0 -9 1 -2 0 -9 1 -2 0 -10"/>
<path stroke="blue" d="M937 463l1 -2 0 -9 1 -2 0 -10 1 -2 0 -9 1 -2 0 -10 1 -2 0 -10 1 -2 0 -7 1 -2 0 -10 1 -2 0 -5"/>
</svg>
