<?xml version="1.0" standalone="yes"?>
<!DOCTYPE svg PUBLIC "-//W3C//DTD SVG 1.1//EN"
 "http://www.w3.org/Graphics/SVG/1.1/DTD/svg11.dtd">
<svg xmlns="http://www.w3.org/2000/svg" version="1.1"
  width="100%" height="100%" viewBox="0 0 1024 768"
  style="fill: none; font-family: Helvetica;
 font: Helvetica;
">

<!-- Creator: NGspice -->

<rect x="0" y="0" width="1024" height="768" fill="white" stroke="none"/>
<text stroke="none" fill="black" font-size="16" x="358" y="752">
time[s]
</text>
<text transform="rotate(-90, 20, 434)"  stroke="none" fill="black" font-size="16" x="20" y="434">
output[mV]
</text>
<text stroke="none" fill="black" font-size="16" x="10" y="16">
tran1: Outputvoltage
</text>
<path stroke="black" d="M85 704l0 -640"/>
<text stroke="none" fill="black" font-size="16" x="70" y="728">
0.0
</text>
<path stroke="black" stroke-dasharray="1,2" d="M172 704l0 -640"/>
<text stroke="none" fill="black" font-size="16" x="157" y="728">
5.0
</text>
<path stroke="black" stroke-dasharray="1,2" d="M259 704l0 -640"/>
<text stroke="none" fill="black" font-size="16" x="239" y="728">
10.0
</text>
<path stroke="black" stroke-dasharray="1,2" d="M346 704l0 -640"/>
<text stroke="none" fill="black" font-size="16" x="326" y="728">
15.0
</text>
<path stroke="black" stroke-dasharray="1,2" d="M433 704l0 -640"/>
<text stroke="none" fill="black" font-size="16" x="413" y="728">
20.0
</text>
<path stroke="black" stroke-dasharray="1,2" d="M520 704l0 -640"/>
<text stroke="none" fill="black" font-size="16" x="500" y="728">
25.0
</text>
<path stroke="black" stroke-dasharray="1,2" d="M607 704l0 -640"/>
<text stroke="none" fill="black" font-size="16" x="587" y="728">
30.0
</text>
<path stroke="black" stroke-dasharray="1,2" d="M694 704l0 -640"/>
<text stroke="none" fill="black" font-size="16" x="674" y="728">
35.0
</text>
<path stroke="black" stroke-dasharray="1,2" d="M781 704l0 -640"/>
<text stroke="none" fill="black" font-size="16" x="761" y="728">
40.0
</text>
<path stroke="black" stroke-dasharray="1,2" d="M868 704l0 -640"/>
<text stroke="none" fill="black" font-size="16" x="848" y="728">
45.0
</text>
<path stroke="black" stroke-dasharray="1,2" d="M955 704l0 -640"/>
<text stroke="none" fill="black" font-size="16" x="935" y="728">
50.0
</text>
<text stroke="none" fill="black" font-size="16" x="614" y="752">
ms
</text>
<path stroke="black" stroke-dasharray="1,2" d="M85 704l870 0"/>
<text stroke="none" fill="black" font-size="16" x="33" y="712">
-20.0
</text>
<path stroke="black" stroke-dasharray="1,2" d="M85 624l870 0"/>
<text stroke="none" fill="black" font-size="16" x="33" y="632">
-15.0
</text>
<path stroke="black" stroke-dasharray="1,2" d="M85 544l870 0"/>
<text stroke="none" fill="black" font-size="16" x="33" y="552">
-10.0
</text>
<path stroke="black" stroke-dasharray="1,2" d="M85 464l870 0"/>
<text stroke="none" fill="black" font-size="16" x="43" y="472">
-5.0
</text>
<path stroke="black" d="M85 384l870 0"/>
<text stroke="none" fill="black" font-size="16" x="53" y="392">
0.0
</text>
<path stroke="black" stroke-dasharray="1,2" d="M85 304l870 0"/>
<text stroke="none" fill="black" font-size="16" x="53" y="312">
5.0
</text>
<path stroke="black" stroke-dasharray="1,2" d="M85 224l870 0"/>
<text stroke="none" fill="black" font-size="16" x="43" y="232">
10.0
</text>
<path stroke="black" stroke-dasharray="1,2" d="M85 144l870 0"/>
<text stroke="none" fill="black" font-size="16" x="43" y="152">
15.0
</text>
<path stroke="black" stroke-dasharray="1,2" d="M85 64l870 0"/>
<text stroke="none" fill="black" font-size="16" x="43" y="72">
20.0
</text>
<text stroke="none" fill="black" font-size="16" x="10" y="32">
m     
</text>
<path stroke="blue" d="M85 376l0 -4 1 -1 0 -8 1 -1 0 -8 1 -2 0 -6 1 -1 0 -8 1 -2 0 -7 1 -2 0 -7 1 -2 0 -6 1 -1 0 -8 1 -1 0 -7 1 -2 0 -7 1 -1 0 -6 1 -2 0 -6 1 -2 0 -7 1 -1 0 -7 1 -1 0 -5 1 -2 0 -6 1 -1 0 -6 1 -2 0 -6 1 -1 0 -5 1 -1 0 -6 1 -1 0 -5"/>
<path stroke="blue" d="M106 205l1 -1 0 -6 1 -1 0 -4 1 -1 0 -5 1 0 0 -5 1 -1 0 -5 1 0 0 -4 1 -1 0 -4 1 0 0 -4 1 -1 0 -3 1 -1 0 -3 1 0 0 -3 1 -1 0 -3 1 0 0 -2 1 -1 0 -2 1 -1 0 -2 1 0 0 -2 1 0 0 -1 1 0 0 -2 1 0 0 -1 1 0 0 -1 5 0M131 134l0 -1M131 134l1 0"/>
<path stroke="blue" d="M132 135l0 -1M132 135l1 0M133 136l0 -1M133 136l1 1M134 138l0 -1M134 138l1 0M135 140l0 -2M135 140l1 0M136 142l0 -2M136 142l1 1M137 145l0 -2M137 145l1 0M138 148l0 -3M138 148l1 0M139 151l0 -3M139 151l1 0M140 154l0 -3M140 154l1 1"/>
<path stroke="blue" d="M141 158l0 -3M141 158l1 1M142 162l0 -3M142 162l1 1M143 166l0 -3M143 166l1 1M144 171l0 -4M144 171l1 1M145 176l0 -4M145 176l1 1M146 181l0 -4M146 181l1 1M147 186l0 -4M147 186l1 1M148 192l0 -5M148 192l1 1M149 198l0 -5M149 198l1 1"/>
<path stroke="blue" d="M150 204l0 -5M150 204l1 1M151 209l0 -4M151 209l1 2M152 216l0 -5M152 216l1 1M153 223l0 -6M153 223l1 2M154 231l0 -6M154 231l1 1M155 237l0 -5M155 237l1 1M156 244l0 -6M156 244l1 2M157 252l0 -6M157 252l1 2M158 260l0 -6M158 260l1 2"/>
<path stroke="blue" d="M159 267l0 -5M159 267l1 1M160 275l0 -7M160 275l1 2M161 284l0 -7M161 284l1 1M162 292l0 -7M162 292l1 2M163 300l0 -6M163 300l1 1M164 309l0 -8M164 309l1 1M165 318l0 -8M165 318l1 1M166 327l0 -8M166 327l1 1M167 334l0 -6M167 334l1 2"/>
<path stroke="blue" d="M168 343l0 -7M168 343l1 2M169 353l0 -8M169 353l1 1M170 362l0 -8M170 362l1 1M171 370l0 -7M171 370l1 1M172 379l0 -8M172 379l1 2M173 388l0 -7M173 388l1 2M174 398l0 -8M174 398l1 1M175 405l0 -6M175 405l1 2M176 415l0 -8M176 415l1 1"/>
<path stroke="blue" d="M177 424l0 -8M177 424l1 2M178 433l0 -7M178 433l1 2M179 441l0 -6M179 441l1 1M180 450l0 -8M180 450l1 1M181 459l0 -8M181 459l1 1M182 468l0 -8M182 468l1 1M183 475l0 -6M183 475l1 2M184 484l0 -7M184 484l1 1M185 492l0 -7M185 492l1 2"/>
<path stroke="blue" d="M186 501l0 -7M186 501l1 1M187 507l0 -5M187 507l1 2M188 515l0 -6M188 515l1 2M189 523l0 -6M189 523l1 2M190 531l0 -6M190 531l1 1M191 537l0 -5M191 537l1 1M192 544l0 -6M192 544l1 2M193 551l0 -5M193 551l1 2M194 558l0 -5M194 558l1 1"/>
<path stroke="blue" d="M195 564l0 -5M195 564l1 1M196 570l0 -5M196 570l1 1M197 576l0 -5M197 576l1 1M198 582l0 -5M198 582l1 0M199 586l0 -4M199 586l1 1M200 591l0 -4M200 591l1 1M201 596l0 -4M201 596l1 1M202 601l0 -4M202 601l1 0M203 604l0 -3M203 604l1 1"/>
<path stroke="blue" d="M204 608l0 -3M204 608l1 1M205 612l0 -3M205 612l1 0M206 615l0 -3M206 615l1 0M207 618l0 -3M207 618l1 0M208 620l0 -2M208 620l1 1M209 622l0 -1M209 622l1 1M210 624l0 -1M210 624l1 0M211 626l0 -2M211 626l1 0M212 627l0 -1M212 627l1 0"/>
<path stroke="blue" d="M213 628l0 -1M213 628l2 0M215 629l0 -1M215 629l1 0 0 -1 2 0 0 -1 1 0 0 -1 1 0 0 -1 1 -1 0 -1 1 -1 0 -1 1 0 0 -3 1 0 0 -3 1 0 0 -3 1 0 0 -3 1 0 0 -4 1 0 0 -4 1 0 0 -4 1 -1 0 -3 1 -1 0 -4 1 -1 0 -5 1 -1 0 -4 1 -1 0 -4 1 -1"/>
<path stroke="blue" d="M235 571l0 -6 1 -1 0 -5 1 -1 0 -6 1 -1 0 -4 1 -2 0 -6 1 -1 0 -6 1 -1 0 -7 1 -1 0 -5 1 -1 0 -7 1 -1 0 -7 1 -2 0 -7 1 -1 0 -6 1 -1 0 -7 1 -2 0 -7 1 -1 0 -8 1 -1 0 -6 1 -2 0 -7 1 -2 0 -8 1 -1 0 -8 1 -1 0 -6 1 -2 0 -8 1 -1"/>
<path stroke="blue" d="M256 407l0 -8 1 -2 0 -7 1 -2 0 -6 1 -2 0 -8 1 -1 0 -8 1 -1 0 -8 1 -2 0 -6 1 -1 0 -8 1 -2 0 -7 1 -2 0 -7 1 -2 0 -6 1 -1 0 -8 1 -1 0 -7 1 -2 0 -7 1 -1 0 -6 1 -2 0 -6 1 -2 0 -7 1 -1 0 -7 1 -1 0 -5 1 -2 0 -6 1 -1 0 -6 1 -2"/>
<path stroke="blue" d="M277 230l0 -6 1 -1 0 -5 1 -1 0 -6 1 -1 0 -5 1 -1 0 -6 1 -1 0 -4 1 -1 0 -5 1 0 0 -5 1 -1 0 -5 1 0 0 -4 1 -1 0 -4 1 0 0 -4 1 -1 0 -3 1 -1 0 -3 1 0 0 -3 1 -1 0 -3 1 0 0 -2 1 -1 0 -2 1 -1 0 -2 1 0 0 -2 1 0 0 -1 1 0 0 -2 1 0"/>
<path stroke="blue" d="M299 135l0 -1 1 0 0 -1 5 0M305 134l0 -1M305 134l1 0M306 135l0 -1M306 135l1 0M307 136l0 -1M307 136l1 1M308 138l0 -1M308 138l1 0M309 140l0 -2M309 140l1 0M310 142l0 -2M310 142l1 1M311 145l0 -2M311 145l1 0M312 148l0 -3M312 148l1 0"/>
<path stroke="blue" d="M313 151l0 -3M313 151l1 0M314 154l0 -3M314 154l1 1M315 158l0 -3M315 158l1 1M316 162l0 -3M316 162l1 1M317 166l0 -3M317 166l1 1M318 171l0 -4M318 171l1 1M319 176l0 -4M319 176l1 1M320 181l0 -4M320 181l1 1M321 186l0 -4M321 186l1 1"/>
<path stroke="blue" d="M322 192l0 -5M322 192l1 1M323 198l0 -5M323 198l1 1M324 204l0 -5M324 204l1 1M325 209l0 -4M325 209l1 2M326 216l0 -5M326 216l1 1M327 223l0 -6M327 223l1 2M328 231l0 -6M328 231l1 1M329 237l0 -5M329 237l1 1M330 244l0 -6M330 244l1 2"/>
<path stroke="blue" d="M331 252l0 -6M331 252l1 2M332 260l0 -6M332 260l1 2M333 267l0 -5M333 267l1 1M334 275l0 -7M334 275l1 2M335 284l0 -7M335 284l1 1M336 292l0 -7M336 292l1 2M337 300l0 -6M337 300l1 1M338 309l0 -8M338 309l1 1M339 318l0 -8M339 318l1 1"/>
<path stroke="blue" d="M340 327l0 -8M340 327l1 1M341 334l0 -6M341 334l1 2M342 343l0 -7M342 343l1 2M343 353l0 -8M343 353l1 1M344 362l0 -8M344 362l1 1M345 370l0 -7M345 370l1 1M346 379l0 -8M346 379l1 2M347 388l0 -7M347 388l1 2M348 398l0 -8M348 398l1 1"/>
<path stroke="blue" d="M349 405l0 -6M349 405l1 2M350 415l0 -8M350 415l1 1M351 424l0 -8M351 424l1 2M352 433l0 -7M352 433l1 2M353 441l0 -6M353 441l1 1M354 450l0 -8M354 450l1 1M355 459l0 -8M355 459l1 1M356 468l0 -8M356 468l1 1M357 475l0 -6M357 475l1 2"/>
<path stroke="blue" d="M358 484l0 -7M358 484l1 1M359 492l0 -7M359 492l1 2M360 501l0 -7M360 501l1 1M361 507l0 -5M361 507l1 2M362 515l0 -6M362 515l1 2M363 523l0 -6M363 523l1 2M364 531l0 -6M364 531l1 1M365 537l0 -5M365 537l1 1M366 544l0 -6M366 544l1 2"/>
<path stroke="blue" d="M367 551l0 -5M367 551l1 2M368 558l0 -5M368 558l1 1M369 564l0 -5M369 564l1 1M370 570l0 -5M370 570l1 1M371 576l0 -5M371 576l1 1M372 582l0 -5M372 582l1 0M373 586l0 -4M373 586l1 1M374 591l0 -4M374 591l1 1M375 596l0 -4M375 596l1 1"/>
<path stroke="blue" d="M376 601l0 -4M376 601l1 0M377 604l0 -3M377 604l1 1M378 608l0 -3M378 608l1 1M379 612l0 -3M379 612l1 0M380 615l0 -3M380 615l1 0M381 618l0 -3M381 618l1 0M382 620l0 -2M382 620l1 1M383 622l0 -1M383 622l1 1M384 624l0 -1M384 624l1 0"/>
<path stroke="blue" d="M385 626l0 -2M385 626l1 0M386 627l0 -1M386 627l1 0M387 628l0 -1M387 628l2 0M389 629l0 -1M389 629l1 0 0 -1 2 0 0 -1 1 0 0 -1 1 0 0 -1 1 -1 0 -1 1 -1 0 -1 1 -1 0 -2 1 0 0 -3 1 0 0 -3 1 0 0 -3 1 0 0 -4 1 0 0 -4 1 0 0 -4 1 -1"/>
<path stroke="blue" d="M404 596l0 -3 1 -1 0 -4 1 -1 0 -5 1 -1 0 -4 1 -1 0 -4 1 -1 0 -6 1 -1 0 -5 1 -1 0 -6 1 -1 0 -4 1 -2 0 -6 1 -1 0 -6 1 -1 0 -7 1 -1 0 -5 1 -1 0 -7 1 -1 0 -7 1 -2 0 -7 1 -1 0 -6 1 -1 0 -7 1 -2 0 -7 1 -1 0 -8 1 -1 0 -6 1 -2"/>
<path stroke="blue" d="M425 451l0 -7 1 -2 0 -7 1 -2 0 -8 1 -1 0 -6 1 -2 0 -8 1 -1 0 -8 1 -2 0 -7 1 -2 0 -6 1 -2 0 -8 1 -1 0 -8 1 -1 0 -8 1 -2 0 -6 1 -1 0 -8 1 -2 0 -7 1 -2 0 -7 1 -2 0 -6 1 -1 0 -8 1 -1 0 -7 1 -2 0 -7 1 -1 0 -6 1 -2 0 -6 1 -2"/>
<path stroke="blue" d="M446 268l0 -7 1 -1 0 -7 1 -1 0 -5 1 -2 0 -6 1 -1 0 -6 1 -2 0 -6 1 -1 0 -5 1 -1 0 -6 1 -1 0 -5 1 -1 0 -6 1 -1 0 -4 1 -1 0 -5 1 0 0 -5 1 -1 0 -5 1 0 0 -4 1 -1 0 -4 1 0 0 -4 1 -1 0 -3 1 -1 0 -3 1 0 0 -3 1 -1 0 -3 1 0 0 -2"/>
<path stroke="blue" d="M467 146l1 -1 0 -2 1 -1 0 -2 1 0 0 -2 1 0 0 -1 1 0 0 -2 1 0 0 -1 1 0 0 -1 5 0M479 134l0 -1M479 134l1 0M480 135l0 -1M480 135l1 0M481 136l0 -1M481 136l1 1M482 138l0 -1M482 138l1 0M483 140l0 -2M483 140l1 0M484 142l0 -2M484 142l1 1"/>
<path stroke="blue" d="M485 145l0 -2M485 145l1 0M486 148l0 -3M486 148l1 0M487 151l0 -3M487 151l1 0M488 154l0 -3M488 154l1 1M489 158l0 -3M489 158l1 1M490 162l0 -3M490 162l1 1M491 166l0 -3M491 166l1 1M492 171l0 -4M492 171l1 1M493 176l0 -4M493 176l1 1"/>
<path stroke="blue" d="M494 181l0 -4M494 181l1 1M495 186l0 -4M495 186l1 1M496 192l0 -5M496 192l1 1M497 198l0 -5M497 198l1 1M498 204l0 -5M498 204l1 1M499 209l0 -4M499 209l1 2M500 216l0 -5M500 216l1 1M501 223l0 -6M501 223l1 2M502 231l0 -6M502 231l1 1"/>
<path stroke="blue" d="M503 237l0 -5M503 237l1 1M504 244l0 -6M504 244l1 2M505 252l0 -6M505 252l1 2M506 260l0 -6M506 260l1 2M507 267l0 -5M507 267l1 1M508 275l0 -7M508 275l1 2M509 284l0 -7M509 284l1 1M510 292l0 -7M510 292l1 2M511 300l0 -6M511 300l1 1"/>
<path stroke="blue" d="M512 309l0 -8M512 309l1 1M513 318l0 -8M513 318l1 1M514 327l0 -8M514 327l1 1M515 334l0 -6M515 334l1 2M516 343l0 -7M516 343l1 2M517 353l0 -8M517 353l1 1M518 362l0 -8M518 362l1 1M519 370l0 -7M519 370l1 1M520 379l0 -8M520 379l1 2"/>
<path stroke="blue" d="M521 388l0 -7M521 388l1 2M522 398l0 -8M522 398l1 1M523 405l0 -6M523 405l1 2M524 415l0 -8M524 415l1 1M525 424l0 -8M525 424l1 2M526 433l0 -7M526 433l1 2M527 441l0 -6M527 441l1 1M528 450l0 -8M528 450l1 1M529 459l0 -8M529 459l1 1"/>
<path stroke="blue" d="M530 468l0 -8M530 468l1 1M531 475l0 -6M531 475l1 2M532 484l0 -7M532 484l1 1M533 492l0 -7M533 492l1 2M534 501l0 -7M534 501l1 1M535 507l0 -5M535 507l1 2M536 515l0 -6M536 515l1 2M537 523l0 -6M537 523l1 2M538 531l0 -6M538 531l1 1"/>
<path stroke="blue" d="M539 537l0 -5M539 537l1 1M540 544l0 -6M540 544l1 2M541 551l0 -5M541 551l1 2M542 558l0 -5M542 558l1 1M543 564l0 -5M543 564l1 1M544 570l0 -5M544 570l1 1M545 576l0 -5M545 576l1 1M546 582l0 -5M546 582l1 0M547 586l0 -4M547 586l1 1"/>
<path stroke="blue" d="M548 591l0 -4M548 591l1 1M549 596l0 -4M549 596l1 1M550 601l0 -4M550 601l1 0M551 604l0 -3M551 604l1 1M552 608l0 -3M552 608l1 1M553 612l0 -3M553 612l1 0M554 615l0 -3M554 615l1 0M555 618l0 -3M555 618l1 0M556 620l0 -2M556 620l1 1"/>
<path stroke="blue" d="M557 622l0 -1M557 622l1 1M558 624l0 -1M558 624l1 0M559 626l0 -2M559 626l1 0M560 627l0 -1M560 627l1 0M561 628l0 -1M561 628l2 0M563 629l0 -1M563 629l1 0 1 -1 1 0 0 -1 1 0 0 -1 1 0 0 -1 1 -1 0 -1 1 -1 0 -1 1 -1 0 -2 1 0 0 -3"/>
<path stroke="blue" d="M572 615l1 0 0 -3 1 0 0 -3 1 0 0 -4 1 0 0 -4 1 0 0 -4 1 -1 0 -3 1 -1 0 -4 1 -1 0 -5 1 -1 0 -4 1 -1 0 -4 1 -1 0 -6 1 -1 0 -5 1 -1 0 -6 1 -1 0 -4 1 -2 0 -6 1 -1 0 -6 1 -1 0 -7 1 -1 0 -5 1 -1 0 -7 1 -1 0 -7 1 -2 0 -7 1 -1"/>
<path stroke="blue" d="M594 492l0 -6 1 -1 0 -7 1 -2 0 -7 1 -1 0 -8 1 -1 0 -6 1 -2 0 -7 1 -2 0 -7 1 -2 0 -8 1 -1 0 -6 1 -2 0 -8 1 -1 0 -8 1 -2 0 -7 1 -2 0 -6 1 -2 0 -8 1 -1 0 -8 1 -1 0 -8 1 -2 0 -6 1 -1 0 -8 1 -2 0 -7 1 -2 0 -7 1 -2 0 -6 1 -1"/>
<path stroke="blue" d="M615 310l0 -8 1 -1 0 -7 1 -2 0 -7 1 -1 0 -6 1 -2 0 -6 1 -2 0 -7 1 -1 0 -7 1 -1 0 -5 1 -2 0 -6 1 -1 0 -6 1 -2 0 -6 1 -1 0 -5 1 -1 0 -6 1 -1 0 -5 1 -1 0 -6 1 -1 0 -4 1 -1 0 -5 1 0 0 -5 1 -1 0 -5 1 0 0 -4 1 -1 0 -4 1 0 0 -4"/>
<path stroke="blue" d="M636 163l1 -1 0 -3 1 -1 0 -3 1 0 0 -3 1 -1 0 -3 1 0 0 -2 1 -1 0 -2 1 -1 0 -2 1 0 0 -2 1 0 0 -1 1 0 0 -2 1 0 0 -1 1 0 0 -1 5 0M653 134l0 -1M653 134l1 0M654 135l0 -1M654 135l1 0M655 136l0 -1M655 136l1 1M656 138l0 -1M656 138l1 0"/>
<path stroke="blue" d="M657 140l0 -2M657 140l1 0M658 142l0 -2M658 142l1 1M659 145l0 -2M659 145l1 0M660 148l0 -3M660 148l1 0M661 151l0 -3M661 151l1 0M662 154l0 -3M662 154l1 1M663 158l0 -3M663 158l1 1M664 162l0 -3M664 162l1 1M665 166l0 -3M665 166l1 1"/>
<path stroke="blue" d="M666 171l0 -4M666 171l1 1M667 176l0 -4M667 176l1 1M668 181l0 -4M668 181l1 1M669 186l0 -4M669 186l1 1M670 192l0 -5M670 192l1 1M671 198l0 -5M671 198l1 1M672 204l0 -5M672 204l1 1M673 209l0 -4M673 209l1 2M674 216l0 -5M674 216l1 1"/>
<path stroke="blue" d="M675 223l0 -6M675 223l1 2M676 231l0 -6M676 231l1 1M677 237l0 -5M677 237l1 1M678 244l0 -6M678 244l1 2M679 252l0 -6M679 252l1 2M680 260l0 -6M680 260l1 2M681 267l0 -5M681 267l1 1M682 275l0 -7M682 275l1 2M683 284l0 -7M683 284l1 1"/>
<path stroke="blue" d="M684 292l0 -7M684 292l1 2M685 300l0 -6M685 300l1 1M686 309l0 -8M686 309l1 1M687 318l0 -8M687 318l1 1M688 327l0 -8M688 327l1 1M689 334l0 -6M689 334l1 2M690 343l0 -7M690 343l1 2M691 353l0 -8M691 353l1 1M692 362l0 -8M692 362l1 1"/>
<path stroke="blue" d="M693 370l0 -7M693 370l1 1M694 379l0 -8M694 379l1 2M695 388l0 -7M695 388l1 2M696 398l0 -8M696 398l1 1M697 405l0 -6M697 405l1 2M698 415l0 -8M698 415l1 1M699 424l0 -8M699 424l1 2M700 433l0 -7M700 433l1 2M701 441l0 -6M701 441l1 1"/>
<path stroke="blue" d="M702 450l0 -8M702 450l1 1M703 459l0 -8M703 459l1 1M704 468l0 -8M704 468l1 1M705 475l0 -6M705 475l1 2M706 484l0 -7M706 484l1 1M707 492l0 -7M707 492l1 2M708 501l0 -7M708 501l1 1M709 507l0 -5M709 507l1 2M710 515l0 -6M710 515l1 2"/>
<path stroke="blue" d="M711 523l0 -6M711 523l1 2M712 531l0 -6M712 531l1 1M713 537l0 -5M713 537l1 1M714 544l0 -6M714 544l1 2M715 551l0 -5M715 551l1 2M716 558l0 -5M716 558l1 1M717 564l0 -5M717 564l1 1M718 570l0 -5M718 570l1 1M719 576l0 -5M719 576l1 1"/>
<path stroke="blue" d="M720 582l0 -5M720 582l1 0M721 586l0 -4M721 586l1 1M722 591l0 -4M722 591l1 1M723 596l0 -4M723 596l1 1M724 601l0 -4M724 601l1 0M725 604l0 -3M725 604l1 1M726 608l0 -3M726 608l1 1M727 612l0 -3M727 612l1 0M728 615l0 -3M728 615l1 0"/>
<path stroke="blue" d="M729 618l0 -3M729 618l1 0M730 620l0 -2M730 620l1 1M731 622l0 -1M731 622l1 1M732 624l0 -1M732 624l1 0M733 626l0 -2M733 626l1 0M734 627l0 -1M734 627l1 0M735 628l0 -1M735 628l2 0M737 629l0 -1M737 629l1 0 0 -1 2 0 0 -1 1 0"/>
<path stroke="blue" d="M741 627l0 -1 1 0 0 -1 1 -1 0 -1 1 -1 0 -1 1 0 0 -3 1 0 0 -3 1 0 0 -3 1 0 0 -3 1 0 0 -4 1 0 0 -4 1 0 0 -4 1 -1 0 -3 1 -1 0 -4 1 -1 0 -5 1 -1 0 -4 1 -1 0 -4 1 -1 0 -6 1 -1 0 -5 1 -1 0 -6 1 -1 0 -4 1 -2 0 -6 1 -1 0 -6 1 -1"/>
<path stroke="blue" d="M763 531l0 -7 1 -1 0 -5 1 -1 0 -7 1 -1 0 -7 1 -2 0 -7 1 -1 0 -6 1 -1 0 -7 1 -2 0 -7 1 -1 0 -8 1 -1 0 -6 1 -2 0 -7 1 -2 0 -7 1 -2 0 -8 1 -1 0 -6 1 -2 0 -8 1 -1 0 -8 1 -2 0 -7 1 -2 0 -6 1 -2 0 -8 1 -1 0 -8 1 -1 0 -8 1 -2"/>
<path stroke="blue" d="M784 352l0 -6 1 -1 0 -8 1 -2 0 -7 1 -2 0 -7 1 -2 0 -6 1 -1 0 -8 1 -1 0 -7 1 -2 0 -7 1 -1 0 -6 1 -2 0 -6 1 -2 0 -7 1 -1 0 -7 1 -1 0 -5 1 -2 0 -6 1 -1 0 -6 1 -2 0 -6 1 -1 0 -5 1 -1 0 -6 1 -1 0 -5 1 -1 0 -6 1 -1 0 -4 1 -1"/>
<path stroke="blue" d="M805 192l0 -5 1 0 0 -5 1 -1 0 -5 1 0 0 -4 1 -1 0 -4 1 0 0 -4 1 -1 0 -3 1 -1 0 -3 1 0 0 -3 1 -1 0 -3 1 0 0 -2 1 -1 0 -2 1 -1 0 -2 1 0 0 -2 1 0 0 -1 1 0 0 -2 1 0 0 -1 1 0 0 -1 5 0M827 134l0 -1M827 134l1 0M828 135l0 -1M828 135l1 0"/>
<path stroke="blue" d="M829 136l0 -1M829 136l1 1M830 138l0 -1M830 138l1 0M831 140l0 -2M831 140l1 0M832 142l0 -2M832 142l1 1M833 145l0 -2M833 145l1 0M834 148l0 -3M834 148l1 0M835 151l0 -3M835 151l1 0M836 154l0 -3M836 154l1 1M837 158l0 -3M837 158l1 1"/>
<path stroke="blue" d="M838 162l0 -3M838 162l1 1M839 166l0 -3M839 166l1 1M840 171l0 -4M840 171l1 1M841 176l0 -4M841 176l1 1M842 181l0 -4M842 181l1 1M843 186l0 -4M843 186l1 1M844 192l0 -5M844 192l1 1M845 198l0 -5M845 198l1 1M846 204l0 -5M846 204l1 1"/>
<path stroke="blue" d="M847 209l0 -4M847 209l1 2M848 216l0 -5M848 216l1 1M849 223l0 -6M849 223l1 2M850 231l0 -6M850 231l1 1M851 237l0 -5M851 237l1 1M852 244l0 -6M852 244l1 2M853 252l0 -6M853 252l1 2M854 260l0 -6M854 260l1 2M855 267l0 -5M855 267l1 1"/>
<path stroke="blue" d="M856 275l0 -7M856 275l1 2M857 284l0 -7M857 284l1 1M858 292l0 -7M858 292l1 2M859 300l0 -6M859 300l1 1M860 309l0 -8M860 309l1 1M861 318l0 -8M861 318l1 1M862 327l0 -8M862 327l1 1M863 334l0 -6M863 334l1 2M864 343l0 -7M864 343l1 2"/>
<path stroke="blue" d="M865 353l0 -8M865 353l1 1M866 362l0 -8M866 362l1 1M867 370l0 -7M867 370l1 1M868 379l0 -8M868 379l1 2M869 388l0 -7M869 388l1 2M870 398l0 -8M870 398l1 1M871 405l0 -6M871 405l1 2M872 415l0 -8M872 415l1 1M873 424l0 -8M873 424l1 2"/>
<path stroke="blue" d="M874 433l0 -7M874 433l1 2M875 441l0 -6M875 441l1 1M876 450l0 -8M876 450l1 1M877 459l0 -8M877 459l1 1M878 468l0 -8M878 468l1 1M879 475l0 -6M879 475l1 2M880 484l0 -7M880 484l1 1M881 492l0 -7M881 492l1 2M882 501l0 -7M882 501l1 1"/>
<path stroke="blue" d="M883 507l0 -5M883 507l1 2M884 515l0 -6M884 515l1 2M885 523l0 -6M885 523l1 2M886 531l0 -6M886 531l1 1M887 537l0 -5M887 537l1 1M888 544l0 -6M888 544l1 2M889 551l0 -5M889 551l1 2M890 558l0 -5M890 558l1 1M891 564l0 -5M891 564l1 1"/>
<path stroke="blue" d="M892 570l0 -5M892 570l1 1M893 576l0 -5M893 576l1 1M894 582l0 -5M894 582l1 0M895 586l0 -4M895 586l1 1M896 591l0 -4M896 591l1 1M897 596l0 -4M897 596l1 1M898 601l0 -4M898 601l1 0M899 604l0 -3M899 604l1 1M900 608l0 -3M900 608l1 1"/>
<path stroke="blue" d="M901 612l0 -3M901 612l1 0M902 615l0 -3M902 615l1 0M903 618l0 -3M903 618l1 0M904 620l0 -2M904 620l1 1M905 622l0 -1M905 622l1 1M906 624l0 -1M906 624l1 0M907 626l0 -2M907 626l1 0M908 627l0 -1M908 627l1 0M909 628l0 -1M909 628l2 0"/>
<path stroke="blue" d="M911 629l0 -1M911 629l1 0 1 -1 1 0 0 -1 1 0 0 -1 1 0 0 -1 1 -1 0 -1 1 -1 0 -1 1 -1 0 -2 1 0 0 -3 1 0 0 -3 1 0 0 -3 1 0 0 -4 1 0 0 -4 1 0 0 -4 1 -1 0 -3 1 -1 0 -4 1 -1 0 -5 1 -1 0 -4 1 -1 0 -4 1 -1 0 -6 1 -1 0 -5 1 -1 0 -6"/>
<path stroke="blue" d="M933 552l1 -1 0 -4 1 -2 0 -6 1 -1 0 -6 1 -1 0 -7 1 -1 0 -5 1 -1 0 -7 1 -1 0 -7 1 -2 0 -7 1 -1 0 -6 1 -1 0 -7 1 -2 0 -7 1 -1 0 -8 1 -1 0 -6 1 -2 0 -7 1 -2 0 -7 1 -2 0 -8 1 -1 0 -6 1 -2 0 -8 1 -1 0 -8 1 -2 0 -7 1 -2 0 -6"/>
<path stroke="blue" d="M954 382l1 -2 0 -4"/>
</svg>
