<?xml version="1.0" standalone="yes"?>
<!DOCTYPE svg PUBLIC "-//W3C//DTD SVG 1.1//EN"
 "http://www.w3.org/Graphics/SVG/1.1/DTD/svg11.dtd">
<svg xmlns="http://www.w3.org/2000/svg" version="1.1"
  width="100%" height="100%" viewBox="0 0 1024 768"
  style="fill: none; font-family: Helvetica;
 font: Helvetica;
">

<!-- Creator: NGspice -->

<rect x="0" y="0" width="1024" height="768" fill="white" stroke="none"/>
<text stroke="none" fill="black" font-size="16" x="358" y="752">
frequency[Hz]
</text>
<text transform="rotate(-90, 20, 434)"  stroke="none" fill="black" font-size="16" x="20" y="434">
phase[deg]
</text>
<text stroke="none" fill="black" font-size="16" x="10" y="16">
ac1: Phaseshift
</text>
<path stroke="black" d="M95 704l0 -636"/>
<text stroke="none" fill="black" font-size="16" x="85" y="728">
10
</text>
<path stroke="black" stroke-dasharray="1,2" d="M152 704l0 -636M168 704l0 -636M180 704l0 -636"/>
<path stroke="black" d="M190 704l0 -636"/>
<text stroke="none" fill="black" font-size="16" x="175" y="728">
100
</text>
<path stroke="black" stroke-dasharray="1,2" d="M247 704l0 -636M263 704l0 -636M275 704l0 -636"/>
<path stroke="black" d="M285 704l0 -636"/>
<text stroke="none" fill="black" font-size="16" x="265" y="728">
10^3
</text>
<path stroke="black" stroke-dasharray="1,2" d="M342 704l0 -636M358 704l0 -636M370 704l0 -636"/>
<path stroke="black" d="M380 704l0 -636"/>
<text stroke="none" fill="black" font-size="16" x="360" y="728">
10^4
</text>
<path stroke="black" stroke-dasharray="1,2" d="M437 704l0 -636M453 704l0 -636M465 704l0 -636"/>
<path stroke="black" d="M475 704l0 -636"/>
<text stroke="none" fill="black" font-size="16" x="455" y="728">
10^5
</text>
<path stroke="black" stroke-dasharray="1,2" d="M532 704l0 -636M548 704l0 -636M560 704l0 -636"/>
<path stroke="black" d="M570 704l0 -636"/>
<text stroke="none" fill="black" font-size="16" x="550" y="728">
10^6
</text>
<path stroke="black" stroke-dasharray="1,2" d="M627 704l0 -636M643 704l0 -636M655 704l0 -636"/>
<path stroke="black" d="M665 704l0 -636"/>
<text stroke="none" fill="black" font-size="16" x="645" y="728">
10^7
</text>
<path stroke="black" stroke-dasharray="1,2" d="M722 704l0 -636M738 704l0 -636M750 704l0 -636"/>
<path stroke="black" d="M760 704l0 -636"/>
<text stroke="none" fill="black" font-size="16" x="740" y="728">
10^8
</text>
<path stroke="black" stroke-dasharray="1,2" d="M817 704l0 -636M833 704l0 -636M845 704l0 -636"/>
<path stroke="black" d="M855 704l0 -636"/>
<text stroke="none" fill="black" font-size="16" x="835" y="728">
10^9
</text>
<path stroke="black" stroke-dasharray="1,2" d="M912 704l0 -636M928 704l0 -636M940 704l0 -636"/>
<path stroke="black" d="M950 704l0 -636"/>
<text stroke="none" fill="black" font-size="16" x="925" y="728">
10^10
</text>
<text stroke="none" fill="black" font-size="16" x="614" y="752">
Hz
</text>
<path stroke="black" stroke-dasharray="1,2" d="M95 704l855 0"/>
<text stroke="none" fill="black" font-size="16" x="33" y="712">
-300.0
</text>
<path stroke="black" stroke-dasharray="1,2" d="M95 598l855 0"/>
<text stroke="none" fill="black" font-size="16" x="33" y="606">
-250.0
</text>
<path stroke="black" stroke-dasharray="1,2" d="M95 492l855 0"/>
<text stroke="none" fill="black" font-size="16" x="33" y="500">
-200.0
</text>
<path stroke="black" stroke-dasharray="1,2" d="M95 386l855 0"/>
<text stroke="none" fill="black" font-size="16" x="33" y="394">
-150.0
</text>
<path stroke="black" stroke-dasharray="1,2" d="M95 280l855 0"/>
<text stroke="none" fill="black" font-size="16" x="33" y="288">
-100.0
</text>
<path stroke="black" stroke-dasharray="1,2" d="M95 174l855 0"/>
<text stroke="none" fill="black" font-size="16" x="43" y="182">
-50.0
</text>
<path stroke="black" d="M95 68l855 0"/>
<text stroke="none" fill="black" font-size="16" x="63" y="76">
0.0
</text>
<text stroke="none" fill="black" font-size="16" x="10" y="32">
Degree
</text>
<path stroke="blue" d="M95 68l135 0 1 1 45 0M276 70l0 -1M276 70l21 0M297 71l0 -1M297 71l14 0M311 72l0 -1M311 72l10 0 1 1 8 0M330 74l0 -1M330 74l6 0 1 1 5 0 1 1 4 0 1 1 4 0M352 78l0 -1M352 78l4 0 1 1 3 0 1 1 2 0 1 1 3 0M367 82l0 -1M367 82l3 0"/>
<path stroke="blue" d="M370 83l0 -1M370 83l2 0 1 1 2 0M375 85l0 -1M375 85l3 0M378 86l0 -1M378 86l2 0M380 87l0 -1M380 87l2 0M382 88l0 -1M382 88l2 0 1 1 1 0 1 1 1 0 1 1 1 0M390 92l0 -1M390 92l1 0 1 1 1 0 1 1 1 0 1 1 1 0M397 96l0 -1M397 96l1 0 2 2"/>
<path stroke="blue" d="M400 98l1 0M401 99l0 -1M401 99l1 0 1 1 1 0M404 101l0 -1M404 101l1 0 2 2 1 0M408 104l0 -1M408 104l1 0M409 105l0 -1M409 105l1 0M410 106l0 -1M410 106l1 0 3 3 1 0M415 110l0 -1M415 110l1 0M416 111l0 -1M416 111l1 0M417 112l0 -1"/>
<path stroke="blue" d="M417 112l1 0M418 113l0 -1M418 113l10 10M428 124l0 -1M428 124l4 4M432 129l0 -1M432 129l1 0M433 130l0 -1M433 130l1 0M434 131l0 -1M434 131l3 3M437 135l0 -1M437 135l2 2M439 138l0 -1M439 138l1 0M440 139l0 -1M440 139l2 2M442 142l0 -1"/>
<path stroke="blue" d="M442 142l1 0M443 143l0 -1M443 143l2 2M445 146l0 -1M445 146l1 0M446 147l0 -1M446 147l1 1M447 149l0 -1M447 149l2 2M449 152l0 -1M449 152l1 0M450 153l0 -1M450 153l2 2M452 156l0 -1M452 156l2 2M454 159l0 -1M454 159l1 0M455 160l0 -1"/>
<path stroke="blue" d="M455 160l1 1M456 162l0 -1M456 162l1 1M457 164l0 -1M457 164l1 0M458 165l0 -1M458 165l2 2M460 168l0 -1M460 168l1 0M461 169l0 -1M461 169l1 1M462 171l0 -1M462 171l1 0M463 172l0 -1M463 172l2 2M465 175l0 -1M465 175l1 0M466 177l0 -2"/>
<path stroke="blue" d="M466 177l1 0M467 178l0 -1M467 178l2 2M469 181l0 -1M469 181l1 0M470 182l0 -1M470 182l2 2M472 185l0 -1M472 185l1 0M473 186l0 -1M473 186l2 2M475 189l0 -1M475 189l1 1M476 191l0 -1M476 191l1 0M477 192l0 -1M477 192l1 0M478 193l0 -1"/>
<path stroke="blue" d="M478 193l2 2M480 196l0 -1M480 196l1 0M481 197l0 -1M481 197l1 0M482 198l0 -1M482 198l3 3M485 202l0 -1M485 202l9 9M494 212l0 -1M494 212l1 0M495 213l0 -1M495 213l1 0M496 214l0 -1M496 214l1 0M497 215l0 -1M497 215l1 0M498 216l0 -1"/>
<path stroke="blue" d="M498 216l1 0M499 217l0 -1M499 217l1 0M500 218l0 -1M500 218l1 0 5 5 1 0M507 224l0 -1M507 224l1 0M508 225l0 -1M508 225l1 0 1 1 1 0M511 227l0 -1M511 227l1 0 2 2 1 0M515 230l0 -1M515 230l1 0 1 1 1 0M518 232l0 -1M518 232l1 0"/>
<path stroke="blue" d="M519 232l1 1 1 0 1 1 1 0M523 235l0 -1M523 235l1 0 1 1 1 0 1 1 1 0 1 1 1 0 1 1 1 0M532 240l0 -1M532 240l2 0 1 1 1 0 1 1 2 0 1 1 2 0M542 244l0 -1M542 244l2 0M544 245l0 -1M544 245l3 0M547 246l0 -1M547 246l3 0 1 1 2 0 1 1 3 0"/>
<path stroke="blue" d="M557 249l0 -1M557 249l4 0M561 250l0 -1M561 250l4 0M565 251l0 -1M565 251l4 0 1 1 4 0 1 1 5 0M580 254l0 -1M580 254l6 0M586 255l0 -1M586 255l7 0M593 256l0 -1M593 256l7 0M600 257l0 -1M600 257l8 0 1 1 8 0 1 1 8 0M626 260l0 -1"/>
<path stroke="blue" d="M626 260l8 0M634 261l0 -1M634 261l8 0M642 262l0 -1M642 262l7 0M649 263l0 -1M649 263l7 0M656 264l0 -1M656 264l5 0 1 1 4 0 1 1 4 0 1 1 4 0M676 268l0 -1M676 268l4 0M680 269l0 -1M680 269l4 0M684 270l0 -1M684 270l3 0M687 271l0 -1"/>
<path stroke="blue" d="M687 271l3 0M690 272l0 -1M690 272l3 0 1 1 1 0 1 1 2 0 1 1 2 0M701 276l0 -1M701 276l2 0M703 277l0 -1M703 277l2 0 1 1 1 0 1 1 1 0 1 1 1 0 1 1 1 0M713 282l0 -1M713 282l2 0M715 283l0 -1M715 283l1 0 1 1 1 0 1 1 1 0M720 286l0 -1"/>
<path stroke="blue" d="M720 286l1 0 2 2 1 0M724 289l0 -1M724 289l1 0 1 1 1 0M727 291l0 -1M727 291l1 0 2 2 1 0M731 294l0 -1M731 294l1 0M732 295l0 -1M732 295l1 0M733 296l0 -1M733 296l1 0M734 297l0 -1M734 297l1 0M735 298l0 -1M735 298l1 0M736 299l0 -1"/>
<path stroke="blue" d="M736 299l1 0 4 4M741 304l0 -1M741 304l1 0M742 305l0 -1M742 305l1 0M743 306l0 -1M743 306l1 0M744 307l0 -1M744 307l4 4M748 312l0 -1M748 312l1 0M749 313l0 -1M749 313l1 0M750 314l0 -1M750 314l1 1M751 316l0 -1M751 316l1 0M752 317l0 -1"/>
<path stroke="blue" d="M752 317l2 2M754 320l0 -1M754 320l1 0M755 321l0 -1M755 321l1 1M756 323l0 -1M756 323l1 0M757 324l0 -1M757 324l2 2M759 327l0 -1M759 327l1 1M760 329l0 -1M760 329l1 1M761 331l0 -1M761 331l2 2M763 334l0 -1M763 334l1 1M764 336l0 -1"/>
<path stroke="blue" d="M764 336l2 2M766 339l0 -1M766 339l1 1M767 341l0 -1M767 341l1 1M768 343l0 -1M768 343l1 1M769 345l0 -1M769 345l1 0M770 347l0 -2M770 347l1 1M771 349l0 -1M771 349l1 1M772 351l0 -1M772 351l1 1M773 353l0 -1M773 353l1 1M774 355l0 -1"/>
<path stroke="blue" d="M774 355l1 1M775 357l0 -1M775 357l1 1M776 359l0 -1M776 359l1 1M777 361l0 -1M777 361l1 2M778 364l0 -1M778 364l1 1M779 367l0 -2M779 367l1 1M780 369l0 -1M780 369l1 1M781 372l0 -2M781 372l1 1M782 374l0 -1M782 374l1 1M783 376l0 -1"/>
<path stroke="blue" d="M783 376l1 1M784 379l0 -2M784 379l1 1M785 381l0 -1M785 381l1 1M786 384l0 -2M786 384l1 1M787 386l0 -1M787 386l1 1M788 389l0 -2M788 389l1 1M789 393l0 -3M789 393l1 1M790 395l0 -1M790 395l1 2M791 398l0 -1M791 398l1 1M792 401l0 -2"/>
<path stroke="blue" d="M792 401l1 1M793 403l0 -1M793 403l1 2M794 406l0 -1M794 406l1 2M795 409l0 -1M795 409l1 1M796 412l0 -2M796 412l1 1M797 415l0 -2M797 415l1 1M798 419l0 -3M798 419l1 2M799 422l0 -1M799 422l1 2M800 425l0 -1M800 425l1 2M801 428l0 -1"/>
<path stroke="blue" d="M801 428l1 2M802 431l0 -1M802 431l1 2M803 434l0 -1M803 434l1 2M804 438l0 -2M804 438l1 1M805 441l0 -2M805 441l1 1M806 444l0 -2M806 444l1 2M807 447l0 -1M807 447l1 2M808 452l0 -3M808 452l1 2M809 455l0 -1M809 455l1 2M810 459l0 -2"/>
<path stroke="blue" d="M810 459l1 2M811 462l0 -1M811 462l1 2M812 466l0 -2M812 466l1 1M813 469l0 -2M813 469l1 2M814 472l0 -1M814 472l1 2M815 476l0 -2M815 476l1 2M816 479l0 -1M816 479l1 2M817 485l0 -4M817 485l1 1M818 488l0 -2M818 488l1 2M819 492l0 -2"/>
<path stroke="blue" d="M819 492l1 2M820 495l0 -1M820 495l1 2M821 499l0 -2M821 499l1 2M822 503l0 -2M822 503l1 1M823 506l0 -2M823 506l1 2M824 510l0 -2M824 510l1 2M825 514l0 -2M825 514l1 1M826 517l0 -2M826 517l1 2M827 523l0 -4M827 523l1 2M828 526l0 -1"/>
<path stroke="blue" d="M828 526l1 2M829 530l0 -2M829 530l1 2M830 534l0 -2M830 534l1 2M831 538l0 -2M831 538l1 1M832 541l0 -2M832 541l1 2M833 545l0 -2M833 545l1 2M834 549l0 -2M834 549l1 2M835 553l0 -2M835 553l1 1M836 558l0 -4M836 558l1 2M837 562l0 -2"/>
<path stroke="blue" d="M837 562l1 2M838 566l0 -2M838 566l1 2M839 569l0 -1M839 569l1 2M840 573l0 -2M840 573l1 2M841 577l0 -2M841 577l1 2M842 581l0 -2M842 581l1 1M843 584l0 -2M843 584l1 2M844 588l0 -2M844 588l1 2M845 592l0 -2M845 592l1 1M846 597l0 -4"/>
<path stroke="blue" d="M846 597l1 2M847 601l0 -2M847 601l1 2M848 604l0 -1M848 604l1 2M849 608l0 -2M849 608l1 2M850 612l0 -2M850 612l1 1M851 615l0 -2M851 615l1 2M852 619l0 -2M852 619l1 2M853 622l0 -1M853 622l1 2M854 626l0 -2M854 626l1 2M855 629l0 -1"/>
</svg>
