<?xml version="1.0" standalone="yes"?>
<!DOCTYPE svg PUBLIC "-//W3C//DTD SVG 1.1//EN"
 "http://www.w3.org/Graphics/SVG/1.1/DTD/svg11.dtd">
<svg xmlns="http://www.w3.org/2000/svg" version="1.1"
  width="100%" height="100%" viewBox="0 0 1024 768"
  style="fill: none; font-family: Helvetica;
 font: Helvetica;
">

<!-- Creator: NGspice -->

<rect x="0" y="0" width="1024" height="768" fill="white" stroke="none"/>
<text stroke="none" fill="black" font-size="16" x="358" y="752">
frequency[Hz]
</text>
<text transform="rotate(-90, 20, 434)"  stroke="none" fill="black" font-size="16" x="20" y="434">
phase[deg]
</text>
<text stroke="none" fill="black" font-size="16" x="10" y="16">
ac1: Phaseshift
</text>
<path stroke="black" d="M95 704l0 -636"/>
<text stroke="none" fill="black" font-size="16" x="85" y="728">
10
</text>
<path stroke="black" stroke-dasharray="1,2" d="M152 704l0 -636M168 704l0 -636M180 704l0 -636"/>
<path stroke="black" d="M190 704l0 -636"/>
<text stroke="none" fill="black" font-size="16" x="175" y="728">
100
</text>
<path stroke="black" stroke-dasharray="1,2" d="M247 704l0 -636M263 704l0 -636M275 704l0 -636"/>
<path stroke="black" d="M285 704l0 -636"/>
<text stroke="none" fill="black" font-size="16" x="265" y="728">
10^3
</text>
<path stroke="black" stroke-dasharray="1,2" d="M342 704l0 -636M358 704l0 -636M370 704l0 -636"/>
<path stroke="black" d="M380 704l0 -636"/>
<text stroke="none" fill="black" font-size="16" x="360" y="728">
10^4
</text>
<path stroke="black" stroke-dasharray="1,2" d="M437 704l0 -636M453 704l0 -636M465 704l0 -636"/>
<path stroke="black" d="M475 704l0 -636"/>
<text stroke="none" fill="black" font-size="16" x="455" y="728">
10^5
</text>
<path stroke="black" stroke-dasharray="1,2" d="M532 704l0 -636M548 704l0 -636M560 704l0 -636"/>
<path stroke="black" d="M570 704l0 -636"/>
<text stroke="none" fill="black" font-size="16" x="550" y="728">
10^6
</text>
<path stroke="black" stroke-dasharray="1,2" d="M627 704l0 -636M643 704l0 -636M655 704l0 -636"/>
<path stroke="black" d="M665 704l0 -636"/>
<text stroke="none" fill="black" font-size="16" x="645" y="728">
10^7
</text>
<path stroke="black" stroke-dasharray="1,2" d="M722 704l0 -636M738 704l0 -636M750 704l0 -636"/>
<path stroke="black" d="M760 704l0 -636"/>
<text stroke="none" fill="black" font-size="16" x="740" y="728">
10^8
</text>
<path stroke="black" stroke-dasharray="1,2" d="M817 704l0 -636M833 704l0 -636M845 704l0 -636"/>
<path stroke="black" d="M855 704l0 -636"/>
<text stroke="none" fill="black" font-size="16" x="835" y="728">
10^9
</text>
<path stroke="black" stroke-dasharray="1,2" d="M912 704l0 -636M928 704l0 -636M940 704l0 -636"/>
<path stroke="black" d="M950 704l0 -636"/>
<text stroke="none" fill="black" font-size="16" x="925" y="728">
10^10
</text>
<text stroke="none" fill="black" font-size="16" x="614" y="752">
Hz
</text>
<path stroke="black" stroke-dasharray="1,2" d="M95 704l855 0"/>
<text stroke="none" fill="black" font-size="16" x="33" y="712">
-300.0
</text>
<path stroke="black" stroke-dasharray="1,2" d="M95 598l855 0"/>
<text stroke="none" fill="black" font-size="16" x="33" y="606">
-250.0
</text>
<path stroke="black" stroke-dasharray="1,2" d="M95 492l855 0"/>
<text stroke="none" fill="black" font-size="16" x="33" y="500">
-200.0
</text>
<path stroke="black" stroke-dasharray="1,2" d="M95 386l855 0"/>
<text stroke="none" fill="black" font-size="16" x="33" y="394">
-150.0
</text>
<path stroke="black" stroke-dasharray="1,2" d="M95 280l855 0"/>
<text stroke="none" fill="black" font-size="16" x="33" y="288">
-100.0
</text>
<path stroke="black" stroke-dasharray="1,2" d="M95 174l855 0"/>
<text stroke="none" fill="black" font-size="16" x="43" y="182">
-50.0
</text>
<path stroke="black" d="M95 68l855 0"/>
<text stroke="none" fill="black" font-size="16" x="63" y="76">
0.0
</text>
<text stroke="none" fill="black" font-size="16" x="10" y="32">
Degree
</text>
<path stroke="blue" d="M95 68l140 0M235 69l0 -1M235 69l45 0M280 70l0 -1M280 70l21 0M301 71l0 -1M301 71l14 0M315 72l0 -1M315 72l10 0M325 73l0 -1M325 73l8 0 1 1 6 0 1 1 5 0 1 1 5 0M352 77l0 -1M352 77l4 0 1 1 3 0 1 1 3 0M364 80l0 -1M364 80l3 0 1 1"/>
<path stroke="blue" d="M368 81l3 0M371 82l0 -1M371 82l2 0 1 1 2 0 1 1 2 0 1 1 1 0 1 1 2 0M384 87l0 -1M384 87l2 0 1 1 1 0 1 1 1 0M390 90l0 -1M390 90l2 0M392 91l0 -1M392 91l2 0M394 92l0 -1M394 92l2 0M396 93l0 -1M396 93l1 0 1 1 1 0M399 95l0 -1M399 95l1 0"/>
<path stroke="blue" d="M400 95l1 1 1 0M402 97l0 -1M402 97l2 0M404 98l0 -1M404 98l1 0 2 2 1 0M408 101l0 -1M408 101l1 0M409 102l0 -1M409 102l1 0 2 2 1 0M413 105l0 -1M413 105l1 0M414 106l0 -1M414 106l1 0 2 2 1 0M418 109l0 -1M418 109l4 4 1 0M423 114l0 -1"/>
<path stroke="blue" d="M423 114l1 0M424 115l0 -1M424 115l1 0M425 116l0 -1M425 116l1 0M426 117l0 -1M426 117l1 0M427 118l0 -1M427 118l1 0M428 119l0 -1M428 119l1 1M429 121l0 -1M429 121l1 0M430 122l0 -1M430 122l1 0M431 123l0 -1M431 123l1 0M432 124l0 -1"/>
<path stroke="blue" d="M432 124l1 0M433 125l0 -1M433 125l1 0M434 126l0 -1M434 126l3 3M437 130l0 -1M437 130l2 2M439 133l0 -1M439 133l1 0M440 134l0 -1M440 134l1 0M441 135l0 -1M441 135l2 2M443 138l0 -1M443 138l1 0M444 139l0 -1M444 139l1 0M445 140l0 -1"/>
<path stroke="blue" d="M445 140l2 2M447 143l0 -1M447 143l1 1M448 145l0 -1M448 145l1 0M449 146l0 -1M449 146l2 2M451 149l0 -1M451 149l1 0M452 150l0 -1M452 150l2 2M454 153l0 -1M454 153l2 2M456 156l0 -1M456 156l1 1M457 158l0 -1M457 158l1 0M458 159l0 -1"/>
<path stroke="blue" d="M458 159l2 2M460 162l0 -1M460 162l2 2M462 165l0 -1M462 165l1 0M463 166l0 -1M463 166l2 2M465 169l0 -1M465 169l1 1M466 171l0 -1M466 171l2 2M468 174l0 -1M468 174l1 0M469 175l0 -1M469 175l2 2M471 178l0 -1M471 178l2 2M473 181l0 -1"/>
<path stroke="blue" d="M473 181l1 0M474 182l0 -1M474 182l1 1M475 184l0 -1M475 184l2 2M477 187l0 -1M477 187l1 0M478 188l0 -1M478 188l1 0M479 189l0 -1M479 189l2 2M481 192l0 -1M481 192l1 0M482 193l0 -1M482 193l1 0M483 194l0 -1M483 194l2 2M485 197l0 -1"/>
<path stroke="blue" d="M485 197l3 3M488 201l0 -1M488 201l1 0M489 202l0 -1M489 202l1 0M490 203l0 -1M490 203l1 0M491 204l0 -1M491 204l3 3M494 208l0 -1M494 208l1 0M495 209l0 -1M495 209l1 0M496 210l0 -1M496 210l1 0M497 211l0 -1M497 211l1 0M498 212l0 -1"/>
<path stroke="blue" d="M498 212l1 0M499 213l0 -1M499 213l1 0M500 214l0 -1M500 214l1 0M501 215l0 -1M501 215l1 0M502 216l0 -1M502 216l1 0M503 217l0 -1M503 217l1 0M504 218l0 -1M504 218l1 0M505 219l0 -1M505 219l1 0M506 220l0 -1M506 220l1 0 2 2 1 0"/>
<path stroke="blue" d="M510 223l0 -1M510 223l1 0M511 224l0 -1M511 224l1 0 1 1M513 226l0 -1M513 226l1 0 1 1 1 0M516 228l0 -1M516 228l1 0 1 1 1 0M519 230l0 -1M519 230l1 0 1 1 1 0M522 232l0 -1M522 232l1 0 1 1 1 0M525 234l0 -1M525 234l2 0M527 235l0 -1"/>
<path stroke="blue" d="M527 235l1 0 1 1 1 0 1 1 1 0M532 238l0 -1M532 238l2 0M534 239l0 -1M534 239l2 0M536 240l0 -1M536 240l2 0 1 1 2 0M541 242l0 -1M541 242l2 0M543 243l0 -1M543 243l2 0 1 1 2 0 1 1 2 0M551 246l0 -1M551 246l3 0M554 247l0 -1M554 247l3 0"/>
<path stroke="blue" d="M557 247l1 1 3 0M561 249l0 -1M561 249l4 0M565 250l0 -1M565 250l4 0M569 251l0 -1M569 251l4 0 1 1 4 0 1 1 5 0M584 254l0 -1M584 254l6 0M590 255l0 -1M590 255l7 0M597 256l0 -1M597 256l7 0 1 1 7 0 1 1 8 0M621 259l0 -1M621 259l8 0"/>
<path stroke="blue" d="M629 259l1 1 8 0M638 261l0 -1M638 261l8 0M646 262l0 -1M646 262l7 0 1 1 6 0M660 264l0 -1M660 264l5 0 1 1 5 0M671 266l0 -1M671 266l4 0 1 1 4 0 1 1 3 0M684 269l0 -1M684 269l4 0M688 270l0 -1M688 270l3 0 1 1 2 0M694 272l0 -1"/>
<path stroke="blue" d="M694 272l3 0 1 1 2 0 1 1 2 0M703 275l0 -1M703 275l2 0M705 276l0 -1M705 276l2 0 1 1 2 0M710 278l0 -1M710 278l2 0M712 279l0 -1M712 279l1 0 1 1 1 0 1 1 1 0 1 1 1 0 1 1 1 0M721 284l0 -1M721 284l1 0 1 1 1 0M724 286l0 -1M724 286l1 0"/>
<path stroke="blue" d="M725 286l1 1 1 0M727 288l0 -1M727 288l1 0 1 1 1 0M730 290l0 -1M730 290l1 0 3 3 1 0M735 294l0 -1M735 294l1 0M736 295l0 -1M736 295l1 0 3 3 1 0M741 299l0 -1M741 299l8 8M749 308l0 -1M749 308l1 0M750 309l0 -1M750 309l1 0M751 310l0 -1"/>
<path stroke="blue" d="M751 310l1 1M752 312l0 -1M752 312l1 0M753 313l0 -1M753 313l1 0M754 314l0 -1M754 314l3 3M757 318l0 -1M757 318l1 0M758 319l0 -1M758 319l2 2M760 323l0 -2M760 323l1 0M761 324l0 -1M761 324l2 2M763 327l0 -1M763 327l2 2M765 330l0 -1"/>
<path stroke="blue" d="M765 330l1 1M766 332l0 -1M766 332l1 0M767 333l0 -1M767 333l1 1M768 335l0 -1M768 335l1 1M769 337l0 -1M769 337l1 0M770 339l0 -2M770 339l1 1M771 341l0 -1M771 341l1 1M772 343l0 -1M772 343l2 2M774 346l0 -1M774 346l1 1M775 348l0 -1"/>
<path stroke="blue" d="M775 348l1 1M776 350l0 -1M776 350l1 1M777 352l0 -1M777 352l1 1M778 354l0 -1M778 354l1 1M779 357l0 -2M779 357l1 1M780 359l0 -1M780 359l1 1M781 361l0 -1M781 361l1 2M782 364l0 -1M782 364l1 1M783 366l0 -1M783 366l1 1M784 368l0 -1"/>
<path stroke="blue" d="M784 368l1 1M785 370l0 -1M785 370l1 1M786 373l0 -2M786 373l1 1M787 375l0 -1M787 375l1 1M788 377l0 -1M788 377l1 2M789 381l0 -2M789 381l1 1M790 384l0 -2M790 384l1 1M791 386l0 -1M791 386l1 1M792 389l0 -2M792 389l1 1M793 391l0 -1"/>
<path stroke="blue" d="M793 391l1 2M794 394l0 -1M794 394l1 1M795 396l0 -1M795 396l1 2M796 399l0 -1M796 399l1 2M797 402l0 -1M797 402l1 1M798 406l0 -3M798 406l1 2M799 409l0 -1M799 409l1 1M800 412l0 -2M800 412l1 1M801 415l0 -2M801 415l1 1M802 418l0 -2"/>
<path stroke="blue" d="M802 418l1 1M803 421l0 -2M803 421l1 1M804 424l0 -2M804 424l1 1M805 427l0 -2M805 427l1 1M806 430l0 -2M806 430l1 1M807 433l0 -2M807 433l1 1M808 438l0 -4M808 438l1 1M809 441l0 -2M809 441l1 1M810 444l0 -2M810 444l1 2M811 447l0 -1"/>
<path stroke="blue" d="M811 447l1 2M812 450l0 -1M812 450l1 2M813 454l0 -2M813 454l1 1M814 457l0 -2M814 457l1 2M815 460l0 -1M815 460l1 2M816 464l0 -2M816 464l1 1M817 469l0 -4M817 469l1 2M818 472l0 -1M818 472l1 2M819 476l0 -2M819 476l1 2M820 479l0 -1"/>
<path stroke="blue" d="M820 479l1 2M821 483l0 -2M821 483l1 2M822 486l0 -1M822 486l1 2M823 490l0 -2M823 490l1 2M824 493l0 -1M824 493l1 2M825 497l0 -2M825 497l1 2M826 501l0 -2M826 501l1 1M827 506l0 -4M827 506l1 2M828 510l0 -2M828 510l1 1M829 513l0 -2"/>
<path stroke="blue" d="M829 513l1 2M830 517l0 -2M830 517l1 2M831 521l0 -2M831 521l1 1M832 524l0 -2M832 524l1 2M833 528l0 -2M833 528l1 2M834 532l0 -2M834 532l1 2M835 535l0 -1M835 535l1 2M836 541l0 -4M836 541l1 2M837 545l0 -2M837 545l1 1M838 548l0 -2"/>
<path stroke="blue" d="M838 548l1 2M839 552l0 -2M839 552l1 2M840 556l0 -2M840 556l1 2M841 559l0 -1M841 559l1 2M842 563l0 -2M842 563l1 2M843 567l0 -2M843 567l1 2M844 571l0 -2M844 571l1 1M845 574l0 -2M845 574l1 2M846 580l0 -4M846 580l1 2M847 583l0 -1"/>
<path stroke="blue" d="M847 583l1 2M848 587l0 -2M848 587l1 2M849 591l0 -2M849 591l1 2M850 594l0 -1M850 594l1 2M851 598l0 -2M851 598l1 2M852 602l0 -2M852 602l1 1M853 605l0 -2M853 605l1 2M854 609l0 -2M854 609l1 1M855 612l0 -2"/>
</svg>
